<?xml version="1.0" encoding="UTF-8" standalone="no"?>
<!DOCTYPE svg PUBLIC "-//W3C//DTD SVG 1.1//EN"
 "http://www.w3.org/Graphics/SVG/1.1/DTD/svg11.dtd">
<!-- Generated by graphviz version 2.38.0 (20140413.2041)
 -->
<!-- Title: controllers_diagram Pages: 1 -->
<svg width="852pt" height="962pt"
 viewBox="0.00 0.00 852.37 961.92" xmlns="http://www.w3.org/2000/svg" xmlns:xlink="http://www.w3.org/1999/xlink">
<g id="graph0" class="graph" transform="scale(1 1) rotate(0) translate(293.917 494.033)">
<title>controllers_diagram</title>
<polygon fill="none" stroke="none" points="-293.917,467.886 -293.917,-494.033 558.45,-494.033 558.45,467.886 -293.917,467.886"/>
<!-- _diagram_info -->
<g id="node1" class="node"><title>_diagram_info</title>
<text text-anchor="start" x="355.55" y="288.9" font-family="Times,serif" font-size="13.00">Controllers diagram</text>
<text text-anchor="start" x="355.55" y="301.9" font-family="Times,serif" font-size="13.00">Date: Jan 27 2016 &#45; 20:57</text>
<text text-anchor="start" x="355.55" y="314.9" font-family="Times,serif" font-size="13.00">Migration version: 20160119093747</text>
<text text-anchor="start" x="355.55" y="327.9" font-family="Times,serif" font-size="13.00">Generated by RailRoady 1.4.2</text>
<text text-anchor="start" x="355.55" y="340.9" font-family="Times,serif" font-size="13.00">http://railroady.prestonlee.com</text>
</g>
<!-- ApplicationController -->
<g id="node2" class="node"><title>ApplicationController</title>
<path fill="none" stroke="black" d="M-71.4577,-23.6853C-71.4577,-23.6853 44.1839,-23.6853 44.1839,-23.6853 50.1839,-23.6853 56.1839,-29.6853 56.1839,-35.6853 56.1839,-35.6853 56.1839,-103.685 56.1839,-103.685 56.1839,-109.685 50.1839,-115.685 44.1839,-115.685 44.1839,-115.685 -71.4577,-115.685 -71.4577,-115.685 -77.4577,-115.685 -83.4577,-109.685 -83.4577,-103.685 -83.4577,-103.685 -83.4577,-35.6853 -83.4577,-35.6853 -83.4577,-29.6853 -77.4577,-23.6853 -71.4577,-23.6853"/>
<text text-anchor="middle" x="-13.6369" y="-100.485" font-family="Times,serif" font-size="14.00">ApplicationController</text>
<polyline fill="none" stroke="black" points="-83.4577,-93.6853 56.1839,-93.6853 "/>
<polyline fill="none" stroke="black" points="-83.4577,-69.6853 56.1839,-69.6853 "/>
<polyline fill="none" stroke="black" points="-83.4577,-45.6853 56.1839,-45.6853 "/>
<text text-anchor="start" x="-75.4577" y="-30.4853" font-family="Times,serif" font-size="14.00">_layout</text>
</g>
<!-- FormsController -->
<g id="node3" class="node"><title>FormsController</title>
<path fill="none" stroke="black" d="M170.774,-29.5055C170.774,-29.5055 256.105,-29.5055 256.105,-29.5055 262.105,-29.5055 268.105,-35.5055 268.105,-41.5055 268.105,-41.5055 268.105,-219.506 268.105,-219.506 268.105,-225.506 262.105,-231.506 256.105,-231.506 256.105,-231.506 170.774,-231.506 170.774,-231.506 164.774,-231.506 158.774,-225.506 158.774,-219.506 158.774,-219.506 158.774,-41.5055 158.774,-41.5055 158.774,-35.5055 164.774,-29.5055 170.774,-29.5055"/>
<text text-anchor="middle" x="213.44" y="-216.306" font-family="Times,serif" font-size="14.00">FormsController</text>
<polyline fill="none" stroke="black" points="158.774,-209.506 268.105,-209.506 "/>
<text text-anchor="start" x="166.774" y="-194.306" font-family="Times,serif" font-size="14.00">create</text>
<text text-anchor="start" x="166.774" y="-180.306" font-family="Times,serif" font-size="14.00">destroy</text>
<text text-anchor="start" x="166.774" y="-166.306" font-family="Times,serif" font-size="14.00">edit</text>
<text text-anchor="start" x="166.774" y="-152.306" font-family="Times,serif" font-size="14.00">index</text>
<text text-anchor="start" x="166.774" y="-138.306" font-family="Times,serif" font-size="14.00">new</text>
<text text-anchor="start" x="166.774" y="-124.306" font-family="Times,serif" font-size="14.00">show</text>
<text text-anchor="start" x="166.774" y="-110.306" font-family="Times,serif" font-size="14.00">update</text>
<polyline fill="none" stroke="black" points="158.774,-103.506 268.105,-103.506 "/>
<polyline fill="none" stroke="black" points="158.774,-79.5055 268.105,-79.5055 "/>
<text text-anchor="start" x="166.774" y="-64.3055" font-family="Times,serif" font-size="14.00">_layout</text>
<text text-anchor="start" x="166.774" y="-50.3055" font-family="Times,serif" font-size="14.00">form_params</text>
<text text-anchor="start" x="166.774" y="-36.3055" font-family="Times,serif" font-size="14.00">set_form</text>
</g>
<!-- ApplicationController&#45;&gt;FormsController -->
<g id="edge1" class="edge"><title>ApplicationController&#45;&gt;FormsController</title>
<path fill="none" stroke="black" d="M56.3464,-88.4296C89.1854,-97.2252 127.754,-107.555 158.457,-115.779"/>
</g>
<!-- PbsController -->
<g id="node4" class="node"><title>PbsController</title>
<path fill="none" stroke="black" d="M-60.5508,411.162C-60.5508,411.162 30.9805,411.162 30.9805,411.162 36.9805,411.162 42.9805,405.162 42.9805,399.162 42.9805,399.162 42.9805,165.162 42.9805,165.162 42.9805,159.162 36.9805,153.162 30.9805,153.162 30.9805,153.162 -60.5508,153.162 -60.5508,153.162 -66.5508,153.162 -72.5508,159.162 -72.5508,165.162 -72.5508,165.162 -72.5508,399.162 -72.5508,399.162 -72.5508,405.162 -66.5508,411.162 -60.5508,411.162"/>
<text text-anchor="middle" x="-14.7852" y="168.362" font-family="Times,serif" font-size="14.00">PbsController</text>
<polyline fill="none" stroke="black" points="-72.5508,175.162 42.9805,175.162 "/>
<text text-anchor="start" x="-64.5508" y="190.362" font-family="Times,serif" font-size="14.00">create</text>
<text text-anchor="start" x="-64.5508" y="204.362" font-family="Times,serif" font-size="14.00">destroy</text>
<text text-anchor="start" x="-64.5508" y="218.362" font-family="Times,serif" font-size="14.00">edit</text>
<text text-anchor="start" x="-64.5508" y="232.362" font-family="Times,serif" font-size="14.00">index</text>
<text text-anchor="start" x="-64.5508" y="246.362" font-family="Times,serif" font-size="14.00">new</text>
<text text-anchor="start" x="-64.5508" y="260.362" font-family="Times,serif" font-size="14.00">new_komponente</text>
<text text-anchor="start" x="-64.5508" y="274.362" font-family="Times,serif" font-size="14.00">new_modul</text>
<text text-anchor="start" x="-64.5508" y="288.362" font-family="Times,serif" font-size="14.00">new_teilmodul</text>
<text text-anchor="start" x="-64.5508" y="302.362" font-family="Times,serif" font-size="14.00">new_teilprodukt</text>
<text text-anchor="start" x="-64.5508" y="316.362" font-family="Times,serif" font-size="14.00">show</text>
<text text-anchor="start" x="-64.5508" y="330.362" font-family="Times,serif" font-size="14.00">update</text>
<polyline fill="none" stroke="black" points="-72.5508,337.162 42.9805,337.162 "/>
<polyline fill="none" stroke="black" points="-72.5508,361.162 42.9805,361.162 "/>
<text text-anchor="start" x="-64.5508" y="376.362" font-family="Times,serif" font-size="14.00">_layout</text>
<text text-anchor="start" x="-64.5508" y="390.362" font-family="Times,serif" font-size="14.00">pb_params</text>
<text text-anchor="start" x="-64.5508" y="404.362" font-family="Times,serif" font-size="14.00">set_pb</text>
</g>
<!-- ApplicationController&#45;&gt;PbsController -->
<g id="edge2" class="edge"><title>ApplicationController&#45;&gt;PbsController</title>
<path fill="none" stroke="black" d="M-13.7882,-23.3256C-13.9344,21.4597 -14.1626,91.3825 -14.3638,153.036"/>
</g>
<!-- RamController -->
<g id="node5" class="node"><title>RamController</title>
<path fill="none" stroke="black" d="M-277.917,-87.5192C-277.917,-87.5192 -201.931,-87.5192 -201.931,-87.5192 -195.931,-87.5192 -189.931,-93.5192 -189.931,-99.5192 -189.931,-99.5192 -189.931,-179.519 -189.931,-179.519 -189.931,-185.519 -195.931,-191.519 -201.931,-191.519 -201.931,-191.519 -277.917,-191.519 -277.917,-191.519 -283.917,-191.519 -289.917,-185.519 -289.917,-179.519 -289.917,-179.519 -289.917,-99.5192 -289.917,-99.5192 -289.917,-93.5192 -283.917,-87.5192 -277.917,-87.5192"/>
<text text-anchor="middle" x="-239.924" y="-176.319" font-family="Times,serif" font-size="14.00">RamController</text>
<polyline fill="none" stroke="black" points="-289.917,-169.519 -189.931,-169.519 "/>
<text text-anchor="start" x="-281.917" y="-154.319" font-family="Times,serif" font-size="14.00">create</text>
<text text-anchor="start" x="-281.917" y="-140.319" font-family="Times,serif" font-size="14.00">index</text>
<polyline fill="none" stroke="black" points="-289.917,-133.519 -189.931,-133.519 "/>
<polyline fill="none" stroke="black" points="-289.917,-109.519 -189.931,-109.519 "/>
<text text-anchor="start" x="-281.917" y="-94.3192" font-family="Times,serif" font-size="14.00">_layout</text>
</g>
<!-- ApplicationController&#45;&gt;RamController -->
<g id="edge3" class="edge"><title>ApplicationController&#45;&gt;RamController</title>
<path fill="none" stroke="black" d="M-83.6858,-91.3029C-117.953,-101.878 -158.421,-114.367 -189.585,-123.984"/>
</g>
<!-- RbsController -->
<g id="node6" class="node"><title>RbsController</title>
<path fill="none" stroke="black" d="M116.956,-245.533C116.956,-245.533 188.287,-245.533 188.287,-245.533 194.287,-245.533 200.287,-251.533 200.287,-257.533 200.287,-257.533 200.287,-477.533 200.287,-477.533 200.287,-483.533 194.287,-489.533 188.287,-489.533 188.287,-489.533 116.956,-489.533 116.956,-489.533 110.956,-489.533 104.956,-483.533 104.956,-477.533 104.956,-477.533 104.956,-257.533 104.956,-257.533 104.956,-251.533 110.956,-245.533 116.956,-245.533"/>
<text text-anchor="middle" x="152.622" y="-474.333" font-family="Times,serif" font-size="14.00">RbsController</text>
<polyline fill="none" stroke="black" points="104.956,-467.533 200.287,-467.533 "/>
<text text-anchor="start" x="112.956" y="-452.333" font-family="Times,serif" font-size="14.00">create</text>
<text text-anchor="start" x="112.956" y="-438.333" font-family="Times,serif" font-size="14.00">destroy</text>
<text text-anchor="start" x="112.956" y="-424.333" font-family="Times,serif" font-size="14.00">edit</text>
<text text-anchor="start" x="112.956" y="-410.333" font-family="Times,serif" font-size="14.00">index</text>
<text text-anchor="start" x="112.956" y="-396.333" font-family="Times,serif" font-size="14.00">new</text>
<text text-anchor="start" x="112.956" y="-382.333" font-family="Times,serif" font-size="14.00">new_art</text>
<text text-anchor="start" x="112.956" y="-368.333" font-family="Times,serif" font-size="14.00">new_quali</text>
<text text-anchor="start" x="112.956" y="-354.333" font-family="Times,serif" font-size="14.00">new_rolle</text>
<text text-anchor="start" x="112.956" y="-340.333" font-family="Times,serif" font-size="14.00">show</text>
<text text-anchor="start" x="112.956" y="-326.333" font-family="Times,serif" font-size="14.00">update</text>
<polyline fill="none" stroke="black" points="104.956,-319.533 200.287,-319.533 "/>
<polyline fill="none" stroke="black" points="104.956,-295.533 200.287,-295.533 "/>
<text text-anchor="start" x="112.956" y="-280.333" font-family="Times,serif" font-size="14.00">_layout</text>
<text text-anchor="start" x="112.956" y="-266.333" font-family="Times,serif" font-size="14.00">rb_params</text>
<text text-anchor="start" x="112.956" y="-252.333" font-family="Times,serif" font-size="14.00">set_rb</text>
</g>
<!-- ApplicationController&#45;&gt;RbsController -->
<g id="edge4" class="edge"><title>ApplicationController&#45;&gt;RbsController</title>
<path fill="none" stroke="black" d="M12.1586,-115.897C36.8306,-160.096 74.6396,-227.83 104.818,-281.893"/>
</g>
<!-- RoadmapController -->
<g id="node7" class="node"><title>RoadmapController</title>
<path fill="none" stroke="black" d="M-225.919,-325.933C-225.919,-325.933 -122.718,-325.933 -122.718,-325.933 -116.718,-325.933 -110.718,-331.933 -110.718,-337.933 -110.718,-337.933 -110.718,-403.933 -110.718,-403.933 -110.718,-409.933 -116.718,-415.933 -122.718,-415.933 -122.718,-415.933 -225.919,-415.933 -225.919,-415.933 -231.919,-415.933 -237.919,-409.933 -237.919,-403.933 -237.919,-403.933 -237.919,-337.933 -237.919,-337.933 -237.919,-331.933 -231.919,-325.933 -225.919,-325.933"/>
<text text-anchor="middle" x="-174.318" y="-400.733" font-family="Times,serif" font-size="14.00">RoadmapController</text>
<polyline fill="none" stroke="black" points="-237.919,-393.933 -110.718,-393.933 "/>
<text text-anchor="start" x="-229.919" y="-378.733" font-family="Times,serif" font-size="14.00">index</text>
<polyline fill="none" stroke="black" points="-237.919,-371.933 -110.718,-371.933 "/>
<polyline fill="none" stroke="black" points="-237.919,-347.933 -110.718,-347.933 "/>
<text text-anchor="start" x="-229.919" y="-332.733" font-family="Times,serif" font-size="14.00">_layout</text>
</g>
<!-- ApplicationController&#45;&gt;RoadmapController -->
<g id="edge5" class="edge"><title>ApplicationController&#45;&gt;RoadmapController</title>
<path fill="none" stroke="black" d="M-38.2159,-115.766C-68.634,-172.794 -120.095,-269.275 -150.268,-325.842"/>
</g>
<!-- RoundsController -->
<g id="node8" class="node"><title>RoundsController</title>
<path fill="none" stroke="black" d="M-263.01,196.358C-263.01,196.358 -170.679,196.358 -170.679,196.358 -164.679,196.358 -158.679,190.358 -158.679,184.358 -158.679,184.358 -158.679,6.35783 -158.679,6.35783 -158.679,0.357825 -164.679,-5.64217 -170.679,-5.64217 -170.679,-5.64217 -263.01,-5.64217 -263.01,-5.64217 -269.01,-5.64217 -275.01,0.357825 -275.01,6.35783 -275.01,6.35783 -275.01,184.358 -275.01,184.358 -275.01,190.358 -269.01,196.358 -263.01,196.358"/>
<text text-anchor="middle" x="-216.845" y="9.55783" font-family="Times,serif" font-size="14.00">RoundsController</text>
<polyline fill="none" stroke="black" points="-275.01,16.3578 -158.679,16.3578 "/>
<text text-anchor="start" x="-267.01" y="31.5578" font-family="Times,serif" font-size="14.00">create</text>
<text text-anchor="start" x="-267.01" y="45.5578" font-family="Times,serif" font-size="14.00">destroy</text>
<text text-anchor="start" x="-267.01" y="59.5578" font-family="Times,serif" font-size="14.00">edit</text>
<text text-anchor="start" x="-267.01" y="73.5578" font-family="Times,serif" font-size="14.00">index</text>
<text text-anchor="start" x="-267.01" y="87.5578" font-family="Times,serif" font-size="14.00">new</text>
<text text-anchor="start" x="-267.01" y="101.558" font-family="Times,serif" font-size="14.00">show</text>
<text text-anchor="start" x="-267.01" y="115.558" font-family="Times,serif" font-size="14.00">update</text>
<polyline fill="none" stroke="black" points="-275.01,122.358 -158.679,122.358 "/>
<polyline fill="none" stroke="black" points="-275.01,146.358 -158.679,146.358 "/>
<text text-anchor="start" x="-267.01" y="161.558" font-family="Times,serif" font-size="14.00">_layout</text>
<text text-anchor="start" x="-267.01" y="175.558" font-family="Times,serif" font-size="14.00">round_params</text>
<text text-anchor="start" x="-267.01" y="189.558" font-family="Times,serif" font-size="14.00">set_round</text>
</g>
<!-- ApplicationController&#45;&gt;RoundsController -->
<g id="edge6" class="edge"><title>ApplicationController&#45;&gt;RoundsController</title>
<path fill="none" stroke="black" d="M-70.5118,-23.4921C-97.9867,-1.17731 -130.913,25.5655 -158.57,48.0277"/>
</g>
<!-- WbsController -->
<g id="node9" class="node"><title>WbsController</title>
<path fill="none" stroke="black" d="M143.964,222.981C143.964,222.981 233.923,222.981 233.923,222.981 239.923,222.981 245.923,216.981 245.923,210.981 245.923,210.981 245.923,-9.01857 245.923,-9.01857 245.923,-15.0186 239.923,-21.0186 233.923,-21.0186 233.923,-21.0186 143.964,-21.0186 143.964,-21.0186 137.964,-21.0186 131.964,-15.0186 131.964,-9.01857 131.964,-9.01857 131.964,210.981 131.964,210.981 131.964,216.981 137.964,222.981 143.964,222.981"/>
<text text-anchor="middle" x="188.943" y="-5.81857" font-family="Times,serif" font-size="14.00">WbsController</text>
<polyline fill="none" stroke="black" points="131.964,0.981425 245.923,0.981425 "/>
<text text-anchor="start" x="139.964" y="16.1814" font-family="Times,serif" font-size="14.00">create</text>
<text text-anchor="start" x="139.964" y="30.1814" font-family="Times,serif" font-size="14.00">destroy</text>
<text text-anchor="start" x="139.964" y="44.1814" font-family="Times,serif" font-size="14.00">edit</text>
<text text-anchor="start" x="139.964" y="58.1814" font-family="Times,serif" font-size="14.00">index</text>
<text text-anchor="start" x="139.964" y="72.1814" font-family="Times,serif" font-size="14.00">new</text>
<text text-anchor="start" x="139.964" y="86.1814" font-family="Times,serif" font-size="14.00">new_arbeitspaket</text>
<text text-anchor="start" x="139.964" y="100.181" font-family="Times,serif" font-size="14.00">new_aufgabe</text>
<text text-anchor="start" x="139.964" y="114.181" font-family="Times,serif" font-size="14.00">new_teilaufgabe</text>
<text text-anchor="start" x="139.964" y="128.181" font-family="Times,serif" font-size="14.00">show</text>
<text text-anchor="start" x="139.964" y="142.181" font-family="Times,serif" font-size="14.00">update</text>
<polyline fill="none" stroke="black" points="131.964,148.981 245.923,148.981 "/>
<polyline fill="none" stroke="black" points="131.964,172.981 245.923,172.981 "/>
<text text-anchor="start" x="139.964" y="188.181" font-family="Times,serif" font-size="14.00">_layout</text>
<text text-anchor="start" x="139.964" y="202.181" font-family="Times,serif" font-size="14.00">set_wb</text>
<text text-anchor="start" x="139.964" y="216.181" font-family="Times,serif" font-size="14.00">wb_params</text>
</g>
<!-- ApplicationController&#45;&gt;WbsController -->
<g id="edge7" class="edge"><title>ApplicationController&#45;&gt;WbsController</title>
<path fill="none" stroke="black" d="M41.1841,-23.5004C69.3067,0.191923 103.531,29.0247 131.957,52.9728"/>
</g>
<!-- WelcomeController -->
<g id="node10" class="node"><title>WelcomeController</title>
<path fill="none" stroke="black" d="M-273.619,412.583C-273.619,412.583 -171.554,412.583 -171.554,412.583 -165.554,412.583 -159.554,406.583 -159.554,400.583 -159.554,400.583 -159.554,320.583 -159.554,320.583 -159.554,314.583 -165.554,308.583 -171.554,308.583 -171.554,308.583 -273.619,308.583 -273.619,308.583 -279.619,308.583 -285.619,314.583 -285.619,320.583 -285.619,320.583 -285.619,400.583 -285.619,400.583 -285.619,406.583 -279.619,412.583 -273.619,412.583"/>
<text text-anchor="middle" x="-222.587" y="323.783" font-family="Times,serif" font-size="14.00">WelcomeController</text>
<polyline fill="none" stroke="black" points="-285.619,330.583 -159.554,330.583 "/>
<text text-anchor="start" x="-277.619" y="345.783" font-family="Times,serif" font-size="14.00">destroy</text>
<text text-anchor="start" x="-277.619" y="359.783" font-family="Times,serif" font-size="14.00">index</text>
<polyline fill="none" stroke="black" points="-285.619,366.583 -159.554,366.583 "/>
<polyline fill="none" stroke="black" points="-285.619,390.583 -159.554,390.583 "/>
<text text-anchor="start" x="-277.619" y="405.783" font-family="Times,serif" font-size="14.00">_layout</text>
</g>
<!-- ApplicationController&#45;&gt;WelcomeController -->
<g id="edge8" class="edge"><title>ApplicationController&#45;&gt;WelcomeController</title>
<path fill="none" stroke="black" d="M-35.9982,-23.6391C-75.215,57.116 -156.132,223.74 -197.314,308.542"/>
</g>
<!-- WorkersController -->
<g id="node11" class="node"><title>WorkersController</title>
<path fill="none" stroke="black" d="M146.405,463.386C146.405,463.386 243.036,463.386 243.036,463.386 249.036,463.386 255.036,457.386 255.036,451.386 255.036,451.386 255.036,273.386 255.036,273.386 255.036,267.386 249.036,261.386 243.036,261.386 243.036,261.386 146.405,261.386 146.405,261.386 140.405,261.386 134.405,267.386 134.405,273.386 134.405,273.386 134.405,451.386 134.405,451.386 134.405,457.386 140.405,463.386 146.405,463.386"/>
<text text-anchor="middle" x="194.721" y="276.586" font-family="Times,serif" font-size="14.00">WorkersController</text>
<polyline fill="none" stroke="black" points="134.405,283.386 255.036,283.386 "/>
<text text-anchor="start" x="142.405" y="298.586" font-family="Times,serif" font-size="14.00">create</text>
<text text-anchor="start" x="142.405" y="312.586" font-family="Times,serif" font-size="14.00">destroy</text>
<text text-anchor="start" x="142.405" y="326.586" font-family="Times,serif" font-size="14.00">edit</text>
<text text-anchor="start" x="142.405" y="340.586" font-family="Times,serif" font-size="14.00">index</text>
<text text-anchor="start" x="142.405" y="354.586" font-family="Times,serif" font-size="14.00">new</text>
<text text-anchor="start" x="142.405" y="368.586" font-family="Times,serif" font-size="14.00">show</text>
<text text-anchor="start" x="142.405" y="382.586" font-family="Times,serif" font-size="14.00">update</text>
<polyline fill="none" stroke="black" points="134.405,389.386 255.036,389.386 "/>
<polyline fill="none" stroke="black" points="134.405,413.386 255.036,413.386 "/>
<text text-anchor="start" x="142.405" y="428.586" font-family="Times,serif" font-size="14.00">_layout</text>
<text text-anchor="start" x="142.405" y="442.586" font-family="Times,serif" font-size="14.00">set_worker</text>
<text text-anchor="start" x="142.405" y="456.586" font-family="Times,serif" font-size="14.00">worker_params</text>
</g>
<!-- ApplicationController&#45;&gt;WorkersController -->
<g id="edge9" class="edge"><title>ApplicationController&#45;&gt;WorkersController</title>
<path fill="none" stroke="black" d="M8.52794,-23.5458C36.507,34.6768 86.1355,137.883 128.764,226.181 134.246,237.538 139.992,249.425 145.709,261.243"/>
</g>
</g>
</svg>
