<?xml version="1.0" encoding="UTF-8" standalone="no"?>
<!DOCTYPE svg PUBLIC "-//W3C//DTD SVG 1.1//EN"
 "http://www.w3.org/Graphics/SVG/1.1/DTD/svg11.dtd">
<!-- Generated by graphviz version 2.38.0 (20140413.2041)
 -->
<!-- Title: controllers_diagram Pages: 1 -->
<svg width="607pt" height="687pt"
 viewBox="0.00 0.00 606.85 687.00" xmlns="http://www.w3.org/2000/svg" xmlns:xlink="http://www.w3.org/1999/xlink">
<g id="graph0" class="graph" transform="scale(1 1) rotate(0) translate(225.033 411.5)">
<title>controllers_diagram</title>
<polygon fill="none" stroke="none" points="-225.033,275.5 -225.033,-411.5 381.821,-411.5 381.821,275.5 -225.033,275.5"/>
<!-- _diagram_info -->
<g id="node1" class="node"><title>_diagram_info</title>
<text text-anchor="start" x="92.5503" y="127.9" font-family="Times,serif" font-size="13.00">Controllers diagram</text>
<text text-anchor="start" x="92.5503" y="140.9" font-family="Times,serif" font-size="13.00">Date: Jan 27 2016 &#45; 20:42</text>
<text text-anchor="start" x="92.5503" y="153.9" font-family="Times,serif" font-size="13.00">Migration version: 20160119093747</text>
<text text-anchor="start" x="92.5503" y="166.9" font-family="Times,serif" font-size="13.00">Generated by RailRoady 1.4.2</text>
<text text-anchor="start" x="92.5503" y="179.9" font-family="Times,serif" font-size="13.00">http://railroady.prestonlee.com</text>
</g>
<!-- ApplicationController -->
<g id="node2" class="node"><title>ApplicationController</title>
<path fill="none" stroke="black" d="M250.179,84C250.179,84 365.821,84 365.821,84 371.821,84 377.821,78 377.821,72 377.821,72 377.821,4 377.821,4 377.821,-2 371.821,-8 365.821,-8 365.821,-8 250.179,-8 250.179,-8 244.179,-8 238.179,-2 238.179,4 238.179,4 238.179,72 238.179,72 238.179,78 244.179,84 250.179,84"/>
<text text-anchor="middle" x="308" y="7.2" font-family="Times,serif" font-size="14.00">ApplicationController</text>
<polyline fill="none" stroke="black" points="238.179,14 377.821,14 "/>
<polyline fill="none" stroke="black" points="238.179,38 377.821,38 "/>
<polyline fill="none" stroke="black" points="238.179,62 377.821,62 "/>
<text text-anchor="start" x="246.179" y="77.2" font-family="Times,serif" font-size="14.00">_layout</text>
</g>
<!-- FormsController -->
<g id="node3" class="node"><title>FormsController</title>
<path fill="none" stroke="black" d="M-191.666,33C-191.666,33 -106.334,33 -106.334,33 -100.334,33 -94.3345,27 -94.3345,21 -94.3345,21 -94.3345,-157 -94.3345,-157 -94.3345,-163 -100.334,-169 -106.334,-169 -106.334,-169 -191.666,-169 -191.666,-169 -197.666,-169 -203.666,-163 -203.666,-157 -203.666,-157 -203.666,21 -203.666,21 -203.666,27 -197.666,33 -191.666,33"/>
<text text-anchor="middle" x="-149" y="-153.8" font-family="Times,serif" font-size="14.00">FormsController</text>
<polyline fill="none" stroke="black" points="-203.666,-147 -94.3345,-147 "/>
<text text-anchor="start" x="-195.666" y="-131.8" font-family="Times,serif" font-size="14.00">create</text>
<text text-anchor="start" x="-195.666" y="-117.8" font-family="Times,serif" font-size="14.00">destroy</text>
<text text-anchor="start" x="-195.666" y="-103.8" font-family="Times,serif" font-size="14.00">edit</text>
<text text-anchor="start" x="-195.666" y="-89.8" font-family="Times,serif" font-size="14.00">index</text>
<text text-anchor="start" x="-195.666" y="-75.8" font-family="Times,serif" font-size="14.00">new</text>
<text text-anchor="start" x="-195.666" y="-61.8" font-family="Times,serif" font-size="14.00">show</text>
<text text-anchor="start" x="-195.666" y="-47.8" font-family="Times,serif" font-size="14.00">update</text>
<polyline fill="none" stroke="black" points="-203.666,-41 -94.3345,-41 "/>
<polyline fill="none" stroke="black" points="-203.666,-17 -94.3345,-17 "/>
<text text-anchor="start" x="-195.666" y="-1.8" font-family="Times,serif" font-size="14.00">_layout</text>
<text text-anchor="start" x="-195.666" y="12.2" font-family="Times,serif" font-size="14.00">form_params</text>
<text text-anchor="start" x="-195.666" y="26.2" font-family="Times,serif" font-size="14.00">set_form</text>
</g>
<!-- PbsController -->
<g id="node4" class="node"><title>PbsController</title>
<path fill="none" stroke="black" d="M-55.7656,135C-55.7656,135 35.7656,135 35.7656,135 41.7656,135 47.7656,129 47.7656,123 47.7656,123 47.7656,-111 47.7656,-111 47.7656,-117 41.7656,-123 35.7656,-123 35.7656,-123 -55.7656,-123 -55.7656,-123 -61.7656,-123 -67.7656,-117 -67.7656,-111 -67.7656,-111 -67.7656,123 -67.7656,123 -67.7656,129 -61.7656,135 -55.7656,135"/>
<text text-anchor="middle" x="-10" y="-107.8" font-family="Times,serif" font-size="14.00">PbsController</text>
<polyline fill="none" stroke="black" points="-67.7656,-101 47.7656,-101 "/>
<text text-anchor="start" x="-59.7656" y="-85.8" font-family="Times,serif" font-size="14.00">create</text>
<text text-anchor="start" x="-59.7656" y="-71.8" font-family="Times,serif" font-size="14.00">destroy</text>
<text text-anchor="start" x="-59.7656" y="-57.8" font-family="Times,serif" font-size="14.00">edit</text>
<text text-anchor="start" x="-59.7656" y="-43.8" font-family="Times,serif" font-size="14.00">index</text>
<text text-anchor="start" x="-59.7656" y="-29.8" font-family="Times,serif" font-size="14.00">new</text>
<text text-anchor="start" x="-59.7656" y="-15.8" font-family="Times,serif" font-size="14.00">new_komponente</text>
<text text-anchor="start" x="-59.7656" y="-1.8" font-family="Times,serif" font-size="14.00">new_modul</text>
<text text-anchor="start" x="-59.7656" y="12.2" font-family="Times,serif" font-size="14.00">new_teilmodul</text>
<text text-anchor="start" x="-59.7656" y="26.2" font-family="Times,serif" font-size="14.00">new_teilprodukt</text>
<text text-anchor="start" x="-59.7656" y="40.2" font-family="Times,serif" font-size="14.00">show</text>
<text text-anchor="start" x="-59.7656" y="54.2" font-family="Times,serif" font-size="14.00">update</text>
<polyline fill="none" stroke="black" points="-67.7656,61 47.7656,61 "/>
<polyline fill="none" stroke="black" points="-67.7656,85 47.7656,85 "/>
<text text-anchor="start" x="-59.7656" y="100.2" font-family="Times,serif" font-size="14.00">_layout</text>
<text text-anchor="start" x="-59.7656" y="114.2" font-family="Times,serif" font-size="14.00">pb_params</text>
<text text-anchor="start" x="-59.7656" y="128.2" font-family="Times,serif" font-size="14.00">set_pb</text>
</g>
<!-- RamController -->
<g id="node5" class="node"><title>RamController</title>
<path fill="none" stroke="black" d="M-55.9932,271C-55.9932,271 19.9932,271 19.9932,271 25.9932,271 31.9932,265 31.9932,259 31.9932,259 31.9932,179 31.9932,179 31.9932,173 25.9932,167 19.9932,167 19.9932,167 -55.9932,167 -55.9932,167 -61.9932,167 -67.9932,173 -67.9932,179 -67.9932,179 -67.9932,259 -67.9932,259 -67.9932,265 -61.9932,271 -55.9932,271"/>
<text text-anchor="middle" x="-18" y="182.2" font-family="Times,serif" font-size="14.00">RamController</text>
<polyline fill="none" stroke="black" points="-67.9932,189 31.9932,189 "/>
<text text-anchor="start" x="-59.9932" y="204.2" font-family="Times,serif" font-size="14.00">create</text>
<text text-anchor="start" x="-59.9932" y="218.2" font-family="Times,serif" font-size="14.00">index</text>
<polyline fill="none" stroke="black" points="-67.9932,225 31.9932,225 "/>
<polyline fill="none" stroke="black" points="-67.9932,249 31.9932,249 "/>
<text text-anchor="start" x="-59.9932" y="264.2" font-family="Times,serif" font-size="14.00">_layout</text>
</g>
<!-- RbsController -->
<g id="node6" class="node"><title>RbsController</title>
<path fill="none" stroke="black" d="M-38.6655,-154C-38.6655,-154 32.6655,-154 32.6655,-154 38.6655,-154 44.6655,-160 44.6655,-166 44.6655,-166 44.6655,-386 44.6655,-386 44.6655,-392 38.6655,-398 32.6655,-398 32.6655,-398 -38.6655,-398 -38.6655,-398 -44.6655,-398 -50.6655,-392 -50.6655,-386 -50.6655,-386 -50.6655,-166 -50.6655,-166 -50.6655,-160 -44.6655,-154 -38.6655,-154"/>
<text text-anchor="middle" x="-3" y="-382.8" font-family="Times,serif" font-size="14.00">RbsController</text>
<polyline fill="none" stroke="black" points="-50.6655,-376 44.6655,-376 "/>
<text text-anchor="start" x="-42.6655" y="-360.8" font-family="Times,serif" font-size="14.00">create</text>
<text text-anchor="start" x="-42.6655" y="-346.8" font-family="Times,serif" font-size="14.00">destroy</text>
<text text-anchor="start" x="-42.6655" y="-332.8" font-family="Times,serif" font-size="14.00">edit</text>
<text text-anchor="start" x="-42.6655" y="-318.8" font-family="Times,serif" font-size="14.00">index</text>
<text text-anchor="start" x="-42.6655" y="-304.8" font-family="Times,serif" font-size="14.00">new</text>
<text text-anchor="start" x="-42.6655" y="-290.8" font-family="Times,serif" font-size="14.00">new_art</text>
<text text-anchor="start" x="-42.6655" y="-276.8" font-family="Times,serif" font-size="14.00">new_quali</text>
<text text-anchor="start" x="-42.6655" y="-262.8" font-family="Times,serif" font-size="14.00">new_rolle</text>
<text text-anchor="start" x="-42.6655" y="-248.8" font-family="Times,serif" font-size="14.00">show</text>
<text text-anchor="start" x="-42.6655" y="-234.8" font-family="Times,serif" font-size="14.00">update</text>
<polyline fill="none" stroke="black" points="-50.6655,-228 44.6655,-228 "/>
<polyline fill="none" stroke="black" points="-50.6655,-204 44.6655,-204 "/>
<text text-anchor="start" x="-42.6655" y="-188.8" font-family="Times,serif" font-size="14.00">_layout</text>
<text text-anchor="start" x="-42.6655" y="-174.8" font-family="Times,serif" font-size="14.00">rb_params</text>
<text text-anchor="start" x="-42.6655" y="-160.8" font-family="Times,serif" font-size="14.00">set_rb</text>
</g>
<!-- RoadmapController -->
<g id="node7" class="node"><title>RoadmapController</title>
<path fill="none" stroke="black" d="M250.4,-35C250.4,-35 353.6,-35 353.6,-35 359.6,-35 365.6,-41 365.6,-47 365.6,-47 365.6,-113 365.6,-113 365.6,-119 359.6,-125 353.6,-125 353.6,-125 250.4,-125 250.4,-125 244.4,-125 238.4,-119 238.4,-113 238.4,-113 238.4,-47 238.4,-47 238.4,-41 244.4,-35 250.4,-35"/>
<text text-anchor="middle" x="302" y="-109.8" font-family="Times,serif" font-size="14.00">RoadmapController</text>
<polyline fill="none" stroke="black" points="238.4,-103 365.6,-103 "/>
<text text-anchor="start" x="246.4" y="-87.8" font-family="Times,serif" font-size="14.00">index</text>
<polyline fill="none" stroke="black" points="238.4,-81 365.6,-81 "/>
<polyline fill="none" stroke="black" points="238.4,-57 365.6,-57 "/>
<text text-anchor="start" x="246.4" y="-41.8" font-family="Times,serif" font-size="14.00">_layout</text>
</g>
<!-- RoundsController -->
<g id="node8" class="node"><title>RoundsController</title>
<path fill="none" stroke="black" d="M-192.166,-205C-192.166,-205 -99.8345,-205 -99.8345,-205 -93.8345,-205 -87.8345,-211 -87.8345,-217 -87.8345,-217 -87.8345,-395 -87.8345,-395 -87.8345,-401 -93.8345,-407 -99.8345,-407 -99.8345,-407 -192.166,-407 -192.166,-407 -198.166,-407 -204.166,-401 -204.166,-395 -204.166,-395 -204.166,-217 -204.166,-217 -204.166,-211 -198.166,-205 -192.166,-205"/>
<text text-anchor="middle" x="-146" y="-391.8" font-family="Times,serif" font-size="14.00">RoundsController</text>
<polyline fill="none" stroke="black" points="-204.166,-385 -87.8345,-385 "/>
<text text-anchor="start" x="-196.166" y="-369.8" font-family="Times,serif" font-size="14.00">create</text>
<text text-anchor="start" x="-196.166" y="-355.8" font-family="Times,serif" font-size="14.00">destroy</text>
<text text-anchor="start" x="-196.166" y="-341.8" font-family="Times,serif" font-size="14.00">edit</text>
<text text-anchor="start" x="-196.166" y="-327.8" font-family="Times,serif" font-size="14.00">index</text>
<text text-anchor="start" x="-196.166" y="-313.8" font-family="Times,serif" font-size="14.00">new</text>
<text text-anchor="start" x="-196.166" y="-299.8" font-family="Times,serif" font-size="14.00">show</text>
<text text-anchor="start" x="-196.166" y="-285.8" font-family="Times,serif" font-size="14.00">update</text>
<polyline fill="none" stroke="black" points="-204.166,-279 -87.8345,-279 "/>
<polyline fill="none" stroke="black" points="-204.166,-255 -87.8345,-255 "/>
<text text-anchor="start" x="-196.166" y="-239.8" font-family="Times,serif" font-size="14.00">_layout</text>
<text text-anchor="start" x="-196.166" y="-225.8" font-family="Times,serif" font-size="14.00">round_params</text>
<text text-anchor="start" x="-196.166" y="-211.8" font-family="Times,serif" font-size="14.00">set_round</text>
</g>
<!-- WbsController -->
<g id="node9" class="node"><title>WbsController</title>
<path fill="none" stroke="black" d="M97.0205,84C97.0205,84 186.979,84 186.979,84 192.979,84 198.979,78 198.979,72 198.979,72 198.979,-148 198.979,-148 198.979,-154 192.979,-160 186.979,-160 186.979,-160 97.0205,-160 97.0205,-160 91.0205,-160 85.0205,-154 85.0205,-148 85.0205,-148 85.0205,72 85.0205,72 85.0205,78 91.0205,84 97.0205,84"/>
<text text-anchor="middle" x="142" y="-144.8" font-family="Times,serif" font-size="14.00">WbsController</text>
<polyline fill="none" stroke="black" points="85.0205,-138 198.979,-138 "/>
<text text-anchor="start" x="93.0205" y="-122.8" font-family="Times,serif" font-size="14.00">create</text>
<text text-anchor="start" x="93.0205" y="-108.8" font-family="Times,serif" font-size="14.00">destroy</text>
<text text-anchor="start" x="93.0205" y="-94.8" font-family="Times,serif" font-size="14.00">edit</text>
<text text-anchor="start" x="93.0205" y="-80.8" font-family="Times,serif" font-size="14.00">index</text>
<text text-anchor="start" x="93.0205" y="-66.8" font-family="Times,serif" font-size="14.00">new</text>
<text text-anchor="start" x="93.0205" y="-52.8" font-family="Times,serif" font-size="14.00">new_arbeitspaket</text>
<text text-anchor="start" x="93.0205" y="-38.8" font-family="Times,serif" font-size="14.00">new_aufgabe</text>
<text text-anchor="start" x="93.0205" y="-24.8" font-family="Times,serif" font-size="14.00">new_teilaufgabe</text>
<text text-anchor="start" x="93.0205" y="-10.8" font-family="Times,serif" font-size="14.00">show</text>
<text text-anchor="start" x="93.0205" y="3.2" font-family="Times,serif" font-size="14.00">update</text>
<polyline fill="none" stroke="black" points="85.0205,10 198.979,10 "/>
<polyline fill="none" stroke="black" points="85.0205,34 198.979,34 "/>
<text text-anchor="start" x="93.0205" y="49.2" font-family="Times,serif" font-size="14.00">_layout</text>
<text text-anchor="start" x="93.0205" y="63.2" font-family="Times,serif" font-size="14.00">set_wb</text>
<text text-anchor="start" x="93.0205" y="77.2" font-family="Times,serif" font-size="14.00">wb_params</text>
</g>
<!-- WelcomeController -->
<g id="node10" class="node"><title>WelcomeController</title>
<path fill="none" stroke="black" d="M-209.033,169C-209.033,169 -106.967,169 -106.967,169 -100.967,169 -94.9673,163 -94.9673,157 -94.9673,157 -94.9673,77 -94.9673,77 -94.9673,71 -100.967,65 -106.967,65 -106.967,65 -209.033,65 -209.033,65 -215.033,65 -221.033,71 -221.033,77 -221.033,77 -221.033,157 -221.033,157 -221.033,163 -215.033,169 -209.033,169"/>
<text text-anchor="middle" x="-158" y="80.2" font-family="Times,serif" font-size="14.00">WelcomeController</text>
<polyline fill="none" stroke="black" points="-221.033,87 -94.9673,87 "/>
<text text-anchor="start" x="-213.033" y="102.2" font-family="Times,serif" font-size="14.00">destroy</text>
<text text-anchor="start" x="-213.033" y="116.2" font-family="Times,serif" font-size="14.00">index</text>
<polyline fill="none" stroke="black" points="-221.033,123 -94.9673,123 "/>
<polyline fill="none" stroke="black" points="-221.033,147 -94.9673,147 "/>
<text text-anchor="start" x="-213.033" y="162.2" font-family="Times,serif" font-size="14.00">_layout</text>
</g>
<!-- WorkersController -->
<g id="node11" class="node"><title>WorkersController</title>
<path fill="none" stroke="black" d="M198.685,-188C198.685,-188 295.315,-188 295.315,-188 301.315,-188 307.315,-194 307.315,-200 307.315,-200 307.315,-378 307.315,-378 307.315,-384 301.315,-390 295.315,-390 295.315,-390 198.685,-390 198.685,-390 192.685,-390 186.685,-384 186.685,-378 186.685,-378 186.685,-200 186.685,-200 186.685,-194 192.685,-188 198.685,-188"/>
<text text-anchor="middle" x="247" y="-374.8" font-family="Times,serif" font-size="14.00">WorkersController</text>
<polyline fill="none" stroke="black" points="186.685,-368 307.315,-368 "/>
<text text-anchor="start" x="194.685" y="-352.8" font-family="Times,serif" font-size="14.00">create</text>
<text text-anchor="start" x="194.685" y="-338.8" font-family="Times,serif" font-size="14.00">destroy</text>
<text text-anchor="start" x="194.685" y="-324.8" font-family="Times,serif" font-size="14.00">edit</text>
<text text-anchor="start" x="194.685" y="-310.8" font-family="Times,serif" font-size="14.00">index</text>
<text text-anchor="start" x="194.685" y="-296.8" font-family="Times,serif" font-size="14.00">new</text>
<text text-anchor="start" x="194.685" y="-282.8" font-family="Times,serif" font-size="14.00">show</text>
<text text-anchor="start" x="194.685" y="-268.8" font-family="Times,serif" font-size="14.00">update</text>
<polyline fill="none" stroke="black" points="186.685,-262 307.315,-262 "/>
<polyline fill="none" stroke="black" points="186.685,-238 307.315,-238 "/>
<text text-anchor="start" x="194.685" y="-222.8" font-family="Times,serif" font-size="14.00">_layout</text>
<text text-anchor="start" x="194.685" y="-208.8" font-family="Times,serif" font-size="14.00">set_worker</text>
<text text-anchor="start" x="194.685" y="-194.8" font-family="Times,serif" font-size="14.00">worker_params</text>
</g>
</g>
</svg>
