<?xml version="1.0" encoding="UTF-8" standalone="no"?>
<!DOCTYPE svg PUBLIC "-//W3C//DTD SVG 1.1//EN"
 "http://www.w3.org/Graphics/SVG/1.1/DTD/svg11.dtd">
<!-- Generated by graphviz version 2.38.0 (20140413.2041)
 -->
<!-- Title: models_diagram Pages: 1 -->
<svg width="570pt" height="153pt"
 viewBox="0.00 0.00 570.45 153.00" xmlns="http://www.w3.org/2000/svg" xmlns:xlink="http://www.w3.org/1999/xlink">
<g id="graph0" class="graph" transform="scale(1 1) rotate(0) translate(4 149)">
<title>models_diagram</title>
<polygon fill="none" stroke="none" points="-4,4 -4,-149 566.45,-149 566.45,4 -4,4"/>
<!-- _diagram_info -->
<g id="node1" class="node"><title>_diagram_info</title>
<text text-anchor="start" x="8" y="-130.6" font-family="Times,serif" font-size="13.00">Models diagram</text>
<text text-anchor="start" x="8" y="-117.6" font-family="Times,serif" font-size="13.00">Date: Jan 27 2016 &#45; 20:42</text>
<text text-anchor="start" x="8" y="-104.6" font-family="Times,serif" font-size="13.00">Migration version: 20160119093747</text>
<text text-anchor="start" x="8" y="-91.6" font-family="Times,serif" font-size="13.00">Generated by RailRoady 1.4.2</text>
<text text-anchor="start" x="8" y="-78.6" font-family="Times,serif" font-size="13.00">http://railroady.prestonlee.com</text>
</g>
<!-- Form -->
<g id="node2" class="node"><title>Form</title>
<ellipse fill="none" stroke="black" cx="265.45" cy="-18" rx="29.0429" ry="18"/>
<text text-anchor="middle" x="265.45" y="-13.8" font-family="Times,serif" font-size="14.00">Form</text>
</g>
<!-- Pb -->
<g id="node3" class="node"><title>Pb</title>
<ellipse fill="none" stroke="black" cx="517.45" cy="-108.5" rx="27" ry="18"/>
<text text-anchor="middle" x="517.45" y="-104.3" font-family="Times,serif" font-size="14.00">Pb</text>
</g>
<!-- Pb&#45;&gt;Pb -->
<g id="edge1" class="edge"><title>Pb&#45;&gt;Pb</title>
<path fill="none" stroke="#19ae20" d="M541.839,-125.09C552.875,-126.741 562.45,-121.211 562.45,-108.5 562.45,-96.6444 554.12,-91.0357 544.045,-91.6739"/>
<ellipse fill="none" stroke="#19ae20" cx="537.902" cy="-123.931" rx="4.00001" ry="4.00001"/>
<polygon fill="#19ae20" stroke="#19ae20" points="543.76,-91.7461 532.961,-89.8375 538.912,-92.973 534.065,-94.1999 534.065,-94.1999 534.065,-94.1999 538.912,-92.973 535.17,-98.5624 543.76,-91.7461 543.76,-91.7461"/>
</g>
<!-- Rb -->
<g id="node4" class="node"><title>Rb</title>
<ellipse fill="none" stroke="black" cx="427.45" cy="-108.5" rx="27" ry="18"/>
<text text-anchor="middle" x="427.45" y="-104.3" font-family="Times,serif" font-size="14.00">Rb</text>
</g>
<!-- Rb&#45;&gt;Rb -->
<g id="edge3" class="edge"><title>Rb&#45;&gt;Rb</title>
<path fill="none" stroke="#a3546f" d="M451.839,-125.09C462.875,-126.741 472.45,-121.211 472.45,-108.5 472.45,-96.6444 464.12,-91.0357 454.045,-91.6739"/>
<ellipse fill="none" stroke="#a3546f" cx="447.902" cy="-123.931" rx="4.00001" ry="4.00001"/>
<polygon fill="#a3546f" stroke="#a3546f" points="453.76,-91.7461 442.961,-89.8375 448.912,-92.973 444.065,-94.1999 444.065,-94.1999 444.065,-94.1999 448.912,-92.973 445.17,-98.5624 453.76,-91.7461 453.76,-91.7461"/>
</g>
<!-- Wb -->
<g id="node6" class="node"><title>Wb</title>
<ellipse fill="none" stroke="black" cx="386.45" cy="-18" rx="27" ry="18"/>
<text text-anchor="middle" x="386.45" y="-13.8" font-family="Times,serif" font-size="14.00">Wb</text>
</g>
<!-- Rb&#45;&gt;Wb -->
<g id="edge2" class="edge"><title>Rb&#45;&gt;Wb</title>
<path fill="none" stroke="#91e9f5" d="M416.257,-83.3411C410.715,-71.378 404.021,-56.9278 398.381,-44.7548"/>
<ellipse fill="none" stroke="#91e9f5" cx="418.056" cy="-87.2244" rx="4.00002" ry="4.00002"/>
<polygon fill="#91e9f5" stroke="#91e9f5" points="398.331,-44.6451 398.21,-33.6799 396.229,-40.1083 394.127,-35.5715 394.127,-35.5715 394.127,-35.5715 396.229,-40.1083 390.044,-37.4632 398.331,-44.6451 398.331,-44.6451"/>
</g>
<!-- Round -->
<g id="node5" class="node"><title>Round</title>
<ellipse fill="none" stroke="black" cx="258.45" cy="-108.5" rx="33.8857" ry="18"/>
<text text-anchor="middle" x="258.45" y="-104.3" font-family="Times,serif" font-size="14.00">Round</text>
</g>
<!-- Round&#45;&gt;Form -->
<g id="edge4" class="edge"><title>Round&#45;&gt;Form</title>
<path fill="none" stroke="#694f5f" d="M260.452,-82.189C261.339,-70.9711 262.385,-57.7517 263.289,-46.3113"/>
<ellipse fill="none" stroke="#694f5f" cx="260.115" cy="-86.4488" rx="4" ry="4"/>
<polygon fill="#694f5f" stroke="#694f5f" points="263.316,-45.9802 268.59,-36.3662 263.71,-40.9957 264.104,-36.0113 264.104,-36.0113 264.104,-36.0113 263.71,-40.9957 259.618,-35.6564 263.316,-45.9802 263.316,-45.9802"/>
</g>
<!-- Wb&#45;&gt;Wb -->
<g id="edge5" class="edge"><title>Wb&#45;&gt;Wb</title>
<path fill="none" stroke="#ecc4c8" d="M410.839,-34.5903C421.875,-36.2413 431.45,-30.7112 431.45,-18 431.45,-6.14438 423.12,-0.53568 413.045,-1.1739"/>
<ellipse fill="none" stroke="#ecc4c8" cx="406.902" cy="-33.4305" rx="4.00001" ry="4.00001"/>
<polygon fill="#ecc4c8" stroke="#ecc4c8" points="412.76,-1.24612 401.961,0.66251 407.912,-2.47302 403.065,-3.69992 403.065,-3.69992 403.065,-3.69992 407.912,-2.47302 404.17,-8.06235 412.76,-1.24612 412.76,-1.24612"/>
</g>
<!-- Worker -->
<g id="node7" class="node"><title>Worker</title>
<ellipse fill="none" stroke="black" cx="346.45" cy="-108.5" rx="36.3169" ry="18"/>
<text text-anchor="middle" x="346.45" y="-104.3" font-family="Times,serif" font-size="14.00">Worker</text>
</g>
<!-- Worker&#45;&gt;Form -->
<g id="edge7" class="edge"><title>Worker&#45;&gt;Form</title>
<path fill="none" stroke="#cb48f1" d="M326.411,-85.606C314.151,-72.2101 298.497,-55.1069 286.122,-41.5861"/>
<ellipse fill="none" stroke="#cb48f1" cx="329.268" cy="-88.7273" rx="4.00002" ry="4.00002"/>
<polygon fill="#cb48f1" stroke="#cb48f1" points="286.016,-41.4711 282.584,-31.0561 282.641,-37.7827 279.265,-34.0943 279.265,-34.0943 279.265,-34.0943 282.641,-37.7827 275.945,-37.1325 286.016,-41.4711 286.016,-41.4711"/>
</g>
<!-- Worker&#45;&gt;Wb -->
<g id="edge6" class="edge"><title>Worker&#45;&gt;Wb</title>
<path fill="none" stroke="#9b723b" d="M357.369,-83.3411C362.776,-71.378 369.307,-56.9278 374.809,-44.7548"/>
<ellipse fill="none" stroke="#9b723b" cx="355.621" cy="-87.2088" rx="4.00002" ry="4.00002"/>
<polygon fill="#9b723b" stroke="#9b723b" points="374.841,-44.684 383.06,-37.4249 376.9,-40.1278 378.96,-35.5715 378.96,-35.5715 378.96,-35.5715 376.9,-40.1278 374.859,-33.7181 374.841,-44.684 374.841,-44.684"/>
</g>
</g>
</svg>
