<?xml version="1.0" encoding="UTF-8" standalone="no"?>
<!DOCTYPE svg PUBLIC "-//W3C//DTD SVG 1.1//EN"
 "http://www.w3.org/Graphics/SVG/1.1/DTD/svg11.dtd">
<!-- Generated by graphviz version 2.38.0 (20140413.2041)
 -->
<!-- Title: models_diagram Pages: 1 -->
<svg width="889pt" height="470pt"
 viewBox="0.00 0.00 889.45 470.00" xmlns="http://www.w3.org/2000/svg" xmlns:xlink="http://www.w3.org/1999/xlink">
<g id="graph0" class="graph" transform="scale(1 1) rotate(0) translate(4 466)">
<title>models_diagram</title>
<polygon fill="none" stroke="none" points="-4,4 -4,-466 885.448,-466 885.448,4 -4,4"/>
<!-- _diagram_info -->
<g id="node1" class="node"><title>_diagram_info</title>
<text text-anchor="start" x="8" y="-384.6" font-family="Times,serif" font-size="13.00">Models diagram</text>
<text text-anchor="start" x="8" y="-371.6" font-family="Times,serif" font-size="13.00">Date: Jan 27 2016 &#45; 20:42</text>
<text text-anchor="start" x="8" y="-358.6" font-family="Times,serif" font-size="13.00">Migration version: 20160119093747</text>
<text text-anchor="start" x="8" y="-345.6" font-family="Times,serif" font-size="13.00">Generated by RailRoady 1.4.2</text>
<text text-anchor="start" x="8" y="-332.6" font-family="Times,serif" font-size="13.00">http://railroady.prestonlee.com</text>
</g>
<!-- Form -->
<g id="node2" class="node"><title>Form</title>
<path fill="none" stroke="black" d="M252.944,-42.5C252.944,-42.5 361.955,-42.5 361.955,-42.5 367.955,-42.5 373.955,-48.5 373.955,-54.5 373.955,-54.5 373.955,-172.5 373.955,-172.5 373.955,-178.5 367.955,-184.5 361.955,-184.5 361.955,-184.5 252.944,-184.5 252.944,-184.5 246.944,-184.5 240.944,-178.5 240.944,-172.5 240.944,-172.5 240.944,-54.5 240.944,-54.5 240.944,-48.5 246.944,-42.5 252.944,-42.5"/>
<text text-anchor="middle" x="307.45" y="-169.3" font-family="Times,serif" font-size="14.00">Form</text>
<polyline fill="none" stroke="black" points="240.944,-162.5 373.955,-162.5 "/>
<text text-anchor="start" x="248.944" y="-147.3" font-family="Times,serif" font-size="14.00">id :INTEGER</text>
<text text-anchor="start" x="248.944" y="-133.3" font-family="Times,serif" font-size="14.00">opt :decimal(16,2)</text>
<text text-anchor="start" x="248.944" y="-119.3" font-family="Times,serif" font-size="14.00">pes :decimal(16,2)</text>
<text text-anchor="start" x="248.944" y="-105.3" font-family="Times,serif" font-size="14.00">real :decimal(16,2)</text>
<text text-anchor="start" x="248.944" y="-91.3" font-family="Times,serif" font-size="14.00">worker_id :integer</text>
<text text-anchor="start" x="248.944" y="-77.3" font-family="Times,serif" font-size="14.00">round_id :integer</text>
<text text-anchor="start" x="248.944" y="-63.3" font-family="Times,serif" font-size="14.00">created_at :datetime</text>
<text text-anchor="start" x="248.944" y="-49.3" font-family="Times,serif" font-size="14.00">updated_at :datetime</text>
</g>
<!-- Pb -->
<g id="node3" class="node"><title>Pb</title>
<path fill="none" stroke="black" d="M735.451,-270.5C735.451,-270.5 851.448,-270.5 851.448,-270.5 857.448,-270.5 863.448,-276.5 863.448,-282.5 863.448,-282.5 863.448,-442.5 863.448,-442.5 863.448,-448.5 857.448,-454.5 851.448,-454.5 851.448,-454.5 735.451,-454.5 735.451,-454.5 729.451,-454.5 723.451,-448.5 723.451,-442.5 723.451,-442.5 723.451,-282.5 723.451,-282.5 723.451,-276.5 729.451,-270.5 735.451,-270.5"/>
<text text-anchor="middle" x="793.45" y="-439.3" font-family="Times,serif" font-size="14.00">Pb</text>
<polyline fill="none" stroke="black" points="723.451,-432.5 863.448,-432.5 "/>
<text text-anchor="start" x="731.451" y="-417.3" font-family="Times,serif" font-size="14.00">id :INTEGER</text>
<text text-anchor="start" x="731.451" y="-403.3" font-family="Times,serif" font-size="14.00">name :varchar</text>
<text text-anchor="start" x="731.451" y="-389.3" font-family="Times,serif" font-size="14.00">parent_id :integer</text>
<text text-anchor="start" x="731.451" y="-375.3" font-family="Times,serif" font-size="14.00">beschreibung :varchar</text>
<text text-anchor="start" x="731.451" y="-361.3" font-family="Times,serif" font-size="14.00">created_at :datetime</text>
<text text-anchor="start" x="731.451" y="-347.3" font-family="Times,serif" font-size="14.00">updated_at :datetime</text>
<text text-anchor="start" x="731.451" y="-333.3" font-family="Times,serif" font-size="14.00">ebene :integer</text>
<text text-anchor="start" x="731.451" y="-319.3" font-family="Times,serif" font-size="14.00">l1 :integer</text>
<text text-anchor="start" x="731.451" y="-305.3" font-family="Times,serif" font-size="14.00">l2 :integer</text>
<text text-anchor="start" x="731.451" y="-291.3" font-family="Times,serif" font-size="14.00">l3 :integer</text>
<text text-anchor="start" x="731.451" y="-277.3" font-family="Times,serif" font-size="14.00">l4 :integer</text>
</g>
<!-- Pb&#45;&gt;Pb -->
<g id="edge1" class="edge"><title>Pb&#45;&gt;Pb</title>
<path fill="none" stroke="#f46a13" d="M869.995,-399.555C877.023,-391.881 881.448,-379.529 881.448,-362.5 881.448,-346.493 877.538,-334.619 871.231,-326.877"/>
<ellipse fill="none" stroke="#f46a13" cx="866.604" cy="-402.355" rx="4.00002" ry="4.00002"/>
<polygon fill="#f46a13" stroke="#f46a13" points="871.03,-326.7 866.49,-316.718 867.275,-323.399 863.519,-320.098 863.519,-320.098 863.519,-320.098 867.275,-323.399 860.548,-323.478 871.03,-326.7 871.03,-326.7"/>
</g>
<!-- Rb -->
<g id="node4" class="node"><title>Rb</title>
<path fill="none" stroke="black" d="M563.386,-263.5C563.386,-263.5 675.514,-263.5 675.514,-263.5 681.514,-263.5 687.514,-269.5 687.514,-275.5 687.514,-275.5 687.514,-449.5 687.514,-449.5 687.514,-455.5 681.514,-461.5 675.514,-461.5 675.514,-461.5 563.386,-461.5 563.386,-461.5 557.386,-461.5 551.386,-455.5 551.386,-449.5 551.386,-449.5 551.386,-275.5 551.386,-275.5 551.386,-269.5 557.386,-263.5 563.386,-263.5"/>
<text text-anchor="middle" x="619.45" y="-446.3" font-family="Times,serif" font-size="14.00">Rb</text>
<polyline fill="none" stroke="black" points="551.386,-439.5 687.514,-439.5 "/>
<text text-anchor="start" x="559.386" y="-424.3" font-family="Times,serif" font-size="14.00">id :INTEGER</text>
<text text-anchor="start" x="559.386" y="-410.3" font-family="Times,serif" font-size="14.00">name :varchar</text>
<text text-anchor="start" x="559.386" y="-396.3" font-family="Times,serif" font-size="14.00">parent_id :integer</text>
<text text-anchor="start" x="559.386" y="-382.3" font-family="Times,serif" font-size="14.00">qualifikation :varchar</text>
<text text-anchor="start" x="559.386" y="-368.3" font-family="Times,serif" font-size="14.00">erfahrung :varchar</text>
<text text-anchor="start" x="559.386" y="-354.3" font-family="Times,serif" font-size="14.00">created_at :datetime</text>
<text text-anchor="start" x="559.386" y="-340.3" font-family="Times,serif" font-size="14.00">updated_at :datetime</text>
<text text-anchor="start" x="559.386" y="-326.3" font-family="Times,serif" font-size="14.00">ebene :integer</text>
<text text-anchor="start" x="559.386" y="-312.3" font-family="Times,serif" font-size="14.00">l1 :integer</text>
<text text-anchor="start" x="559.386" y="-298.3" font-family="Times,serif" font-size="14.00">l2 :integer</text>
<text text-anchor="start" x="559.386" y="-284.3" font-family="Times,serif" font-size="14.00">l3 :integer</text>
<text text-anchor="start" x="559.386" y="-270.3" font-family="Times,serif" font-size="14.00">vza :integer</text>
</g>
<!-- Rb&#45;&gt;Rb -->
<g id="edge3" class="edge"><title>Rb&#45;&gt;Rb</title>
<path fill="none" stroke="#aa3c05" d="M694.082,-399.809C701.089,-392.154 705.514,-379.718 705.514,-362.5 705.514,-346.315 701.604,-334.355 695.315,-326.62"/>
<ellipse fill="none" stroke="#aa3c05" cx="690.719" cy="-402.574" rx="4.00002" ry="4.00002"/>
<polygon fill="#aa3c05" stroke="#aa3c05" points="695.15,-326.476 690.595,-316.501 691.39,-323.181 687.63,-319.885 687.63,-319.885 687.63,-319.885 691.39,-323.181 684.664,-323.27 695.15,-326.476 695.15,-326.476"/>
</g>
<!-- Wb -->
<g id="node6" class="node"><title>Wb</title>
<path fill="none" stroke="black" d="M484.451,-0.5C484.451,-0.5 600.448,-0.5 600.448,-0.5 606.448,-0.5 612.448,-6.5 612.448,-12.5 612.448,-12.5 612.448,-214.5 612.448,-214.5 612.448,-220.5 606.448,-226.5 600.448,-226.5 600.448,-226.5 484.451,-226.5 484.451,-226.5 478.451,-226.5 472.451,-220.5 472.451,-214.5 472.451,-214.5 472.451,-12.5 472.451,-12.5 472.451,-6.5 478.451,-0.5 484.451,-0.5"/>
<text text-anchor="middle" x="542.45" y="-211.3" font-family="Times,serif" font-size="14.00">Wb</text>
<polyline fill="none" stroke="black" points="472.451,-204.5 612.448,-204.5 "/>
<text text-anchor="start" x="480.451" y="-189.3" font-family="Times,serif" font-size="14.00">id :INTEGER</text>
<text text-anchor="start" x="480.451" y="-175.3" font-family="Times,serif" font-size="14.00">name :varchar</text>
<text text-anchor="start" x="480.451" y="-161.3" font-family="Times,serif" font-size="14.00">parent_id :integer</text>
<text text-anchor="start" x="480.451" y="-147.3" font-family="Times,serif" font-size="14.00">beschreibung :varchar</text>
<text text-anchor="start" x="480.451" y="-133.3" font-family="Times,serif" font-size="14.00">start :date</text>
<text text-anchor="start" x="480.451" y="-119.3" font-family="Times,serif" font-size="14.00">end :date</text>
<text text-anchor="start" x="480.451" y="-105.3" font-family="Times,serif" font-size="14.00">rb_id :integer</text>
<text text-anchor="start" x="480.451" y="-91.3" font-family="Times,serif" font-size="14.00">worker_id :integer</text>
<text text-anchor="start" x="480.451" y="-77.3" font-family="Times,serif" font-size="14.00">created_at :datetime</text>
<text text-anchor="start" x="480.451" y="-63.3" font-family="Times,serif" font-size="14.00">updated_at :datetime</text>
<text text-anchor="start" x="480.451" y="-49.3" font-family="Times,serif" font-size="14.00">ebene :integer</text>
<text text-anchor="start" x="480.451" y="-35.3" font-family="Times,serif" font-size="14.00">l1 :integer</text>
<text text-anchor="start" x="480.451" y="-21.3" font-family="Times,serif" font-size="14.00">l2 :integer</text>
<text text-anchor="start" x="480.451" y="-7.3" font-family="Times,serif" font-size="14.00">l3 :integer</text>
</g>
<!-- Rb&#45;&gt;Wb -->
<g id="edge2" class="edge"><title>Rb&#45;&gt;Wb</title>
<path fill="none" stroke="#44f3b9" d="M586.333,-255.27C584.4,-249.069 582.449,-242.808 580.499,-236.553"/>
<ellipse fill="none" stroke="#44f3b9" cx="587.606" cy="-259.351" rx="4.00001" ry="4.00001"/>
<polygon fill="#44f3b9" stroke="#44f3b9" points="580.415,-236.284 581.735,-225.398 578.927,-231.51 577.439,-226.737 577.439,-226.737 577.439,-226.737 578.927,-231.51 573.142,-228.076 580.415,-236.284 580.415,-236.284"/>
</g>
<!-- Round -->
<g id="node5" class="node"><title>Round</title>
<path fill="none" stroke="black" d="M236.503,-312.5C236.503,-312.5 370.396,-312.5 370.396,-312.5 376.396,-312.5 382.396,-318.5 382.396,-324.5 382.396,-324.5 382.396,-400.5 382.396,-400.5 382.396,-406.5 376.396,-412.5 370.396,-412.5 370.396,-412.5 236.503,-412.5 236.503,-412.5 230.503,-412.5 224.503,-406.5 224.503,-400.5 224.503,-400.5 224.503,-324.5 224.503,-324.5 224.503,-318.5 230.503,-312.5 236.503,-312.5"/>
<text text-anchor="middle" x="303.45" y="-397.3" font-family="Times,serif" font-size="14.00">Round</text>
<polyline fill="none" stroke="black" points="224.503,-390.5 382.396,-390.5 "/>
<text text-anchor="start" x="232.503" y="-375.3" font-family="Times,serif" font-size="14.00">id :INTEGER</text>
<text text-anchor="start" x="232.503" y="-361.3" font-family="Times,serif" font-size="14.00">count :integer</text>
<text text-anchor="start" x="232.503" y="-347.3" font-family="Times,serif" font-size="14.00">member_number :integer</text>
<text text-anchor="start" x="232.503" y="-333.3" font-family="Times,serif" font-size="14.00">created_at :datetime</text>
<text text-anchor="start" x="232.503" y="-319.3" font-family="Times,serif" font-size="14.00">updated_at :datetime</text>
</g>
<!-- Round&#45;&gt;Form -->
<g id="edge4" class="edge"><title>Round&#45;&gt;Form</title>
<path fill="none" stroke="#0b19fa" d="M304.38,-304.041C304.906,-271.592 305.571,-230.526 306.147,-194.921"/>
<ellipse fill="none" stroke="#0b19fa" cx="304.31" cy="-308.406" rx="4" ry="4"/>
<polygon fill="#0b19fa" stroke="#0b19fa" points="306.153,-194.549 310.815,-184.623 306.234,-189.549 306.315,-184.55 306.315,-184.55 306.315,-184.55 306.234,-189.549 301.816,-184.477 306.153,-194.549 306.153,-194.549"/>
</g>
<!-- Wb&#45;&gt;Wb -->
<g id="edge5" class="edge"><title>Wb&#45;&gt;Wb</title>
<path fill="none" stroke="#b898de" d="M618.995,-150.555C626.023,-142.881 630.448,-130.529 630.448,-113.5 630.448,-97.4929 626.538,-85.6185 620.231,-77.8768"/>
<ellipse fill="none" stroke="#b898de" cx="615.604" cy="-153.355" rx="4.00002" ry="4.00002"/>
<polygon fill="#b898de" stroke="#b898de" points="620.03,-77.7002 615.49,-67.7183 616.275,-74.3992 612.519,-71.0983 612.519,-71.0983 612.519,-71.0983 616.275,-74.3992 609.548,-74.4782 620.03,-77.7002 620.03,-77.7002"/>
</g>
<!-- Worker -->
<g id="node7" class="node"><title>Worker</title>
<path fill="none" stroke="black" d="M411.944,-319.5C411.944,-319.5 520.955,-319.5 520.955,-319.5 526.955,-319.5 532.955,-325.5 532.955,-331.5 532.955,-331.5 532.955,-393.5 532.955,-393.5 532.955,-399.5 526.955,-405.5 520.955,-405.5 520.955,-405.5 411.944,-405.5 411.944,-405.5 405.944,-405.5 399.944,-399.5 399.944,-393.5 399.944,-393.5 399.944,-331.5 399.944,-331.5 399.944,-325.5 405.944,-319.5 411.944,-319.5"/>
<text text-anchor="middle" x="466.45" y="-390.3" font-family="Times,serif" font-size="14.00">Worker</text>
<polyline fill="none" stroke="black" points="399.944,-383.5 532.955,-383.5 "/>
<text text-anchor="start" x="407.944" y="-368.3" font-family="Times,serif" font-size="14.00">id :INTEGER</text>
<text text-anchor="start" x="407.944" y="-354.3" font-family="Times,serif" font-size="14.00">name :varchar</text>
<text text-anchor="start" x="407.944" y="-340.3" font-family="Times,serif" font-size="14.00">created_at :datetime</text>
<text text-anchor="start" x="407.944" y="-326.3" font-family="Times,serif" font-size="14.00">updated_at :datetime</text>
</g>
<!-- Worker&#45;&gt;Form -->
<g id="edge7" class="edge"><title>Worker&#45;&gt;Form</title>
<path fill="none" stroke="#1437a4" d="M434.713,-312.198C412.833,-278.208 383.282,-232.303 358.164,-193.282"/>
<ellipse fill="none" stroke="#1437a4" cx="437.132" cy="-315.956" rx="4.00002" ry="4.00002"/>
<polygon fill="#1437a4" stroke="#1437a4" points="357.959,-192.964 356.33,-182.119 355.252,-188.759 352.546,-184.555 352.546,-184.555 352.546,-184.555 355.252,-188.759 348.762,-186.991 357.959,-192.964 357.959,-192.964"/>
</g>
<!-- Worker&#45;&gt;Wb -->
<g id="edge6" class="edge"><title>Worker&#45;&gt;Wb</title>
<path fill="none" stroke="#3865d9" d="M481.81,-311.58C488.531,-289.736 496.739,-263.06 504.918,-236.478"/>
<ellipse fill="none" stroke="#3865d9" cx="480.605" cy="-315.497" rx="4.00001" ry="4.00001"/>
<polygon fill="#3865d9" stroke="#3865d9" points="504.986,-236.255 512.228,-228.021 506.457,-231.476 507.927,-226.697 507.927,-226.697 507.927,-226.697 506.457,-231.476 503.626,-225.374 504.986,-236.255 504.986,-236.255"/>
</g>
</g>
</svg>
