<?xml version="1.0" encoding="UTF-8" standalone="no"?>
<!DOCTYPE svg PUBLIC "-//W3C//DTD SVG 1.1//EN"
 "http://www.w3.org/Graphics/SVG/1.1/DTD/svg11.dtd">
<!-- Generated by graphviz version 2.38.0 (20140413.2041)
 -->
<!-- Title: models_diagram Pages: 1 -->
<svg width="499pt" height="225pt"
 viewBox="0.00 0.00 499.31 225.00" xmlns="http://www.w3.org/2000/svg" xmlns:xlink="http://www.w3.org/1999/xlink">
<g id="graph0" class="graph" transform="scale(1 1) rotate(0) translate(4 221)">
<title>models_diagram</title>
<polygon fill="none" stroke="none" points="-4,4 -4,-221 495.31,-221 495.31,4 -4,4"/>
<!-- _diagram_info -->
<g id="node1" class="node"><title>_diagram_info</title>
<text text-anchor="start" x="8" y="-202.6" font-family="Times,serif" font-size="13.00">Models diagram</text>
<text text-anchor="start" x="8" y="-189.6" font-family="Times,serif" font-size="13.00">Date: Jan 27 2016 &#45; 20:57</text>
<text text-anchor="start" x="8" y="-176.6" font-family="Times,serif" font-size="13.00">Migration version: 20160119093747</text>
<text text-anchor="start" x="8" y="-163.6" font-family="Times,serif" font-size="13.00">Generated by RailRoady 1.4.2</text>
<text text-anchor="start" x="8" y="-150.6" font-family="Times,serif" font-size="13.00">http://railroady.prestonlee.com</text>
</g>
<!-- Form -->
<g id="node2" class="node"><title>Form</title>
<ellipse fill="none" stroke="black" cx="262.45" cy="-18" rx="29.0429" ry="18"/>
<text text-anchor="middle" x="262.45" y="-13.8" font-family="Times,serif" font-size="14.00">Form</text>
</g>
<!-- Pb -->
<g id="node3" class="node"><title>Pb</title>
<ellipse fill="none" stroke="black" cx="165.45" cy="-90" rx="27" ry="18"/>
<text text-anchor="middle" x="165.45" y="-85.8" font-family="Times,serif" font-size="14.00">Pb</text>
</g>
<!-- Pb&#45;&gt;Pb -->
<g id="edge2" class="edge"><title>Pb&#45;&gt;Pb</title>
<path fill="none" stroke="#e7b26c" d="M193.547,-103.5C202.935,-103.509 210.45,-99.0088 210.45,-90 210.45,-81.6218 203.95,-77.1433 195.489,-76.5644"/>
<ellipse fill="none" stroke="#e7b26c" cx="189.311" cy="-102.949" rx="4.00001" ry="4.00001"/>
<polygon fill="#e7b26c" stroke="#e7b26c" points="195.296,-76.5834 184.902,-73.0897 190.32,-77.0757 185.345,-77.5679 185.345,-77.5679 185.345,-77.5679 190.32,-77.0757 185.788,-82.046 195.296,-76.5834 195.296,-76.5834"/>
</g>
<!-- Rb -->
<g id="node4" class="node"><title>Rb</title>
<ellipse fill="none" stroke="black" cx="431.45" cy="-90" rx="27" ry="18"/>
<text text-anchor="middle" x="431.45" y="-85.8" font-family="Times,serif" font-size="14.00">Rb</text>
</g>
<!-- Rb&#45;&gt;Rb -->
<g id="edge5" class="edge"><title>Rb&#45;&gt;Rb</title>
<path fill="none" stroke="#9865c3" d="M459.547,-103.5C468.935,-103.509 476.45,-99.0088 476.45,-90 476.45,-81.6218 469.95,-77.1433 461.489,-76.5644"/>
<ellipse fill="none" stroke="#9865c3" cx="455.311" cy="-102.949" rx="4.00001" ry="4.00001"/>
<polygon fill="#9865c3" stroke="#9865c3" points="461.296,-76.5834 450.902,-73.0897 456.32,-77.0757 451.345,-77.5679 451.345,-77.5679 451.345,-77.5679 456.32,-77.0757 451.788,-82.046 461.296,-76.5834 461.296,-76.5834"/>
</g>
<!-- Wb -->
<g id="node6" class="node"><title>Wb</title>
<ellipse fill="none" stroke="black" cx="431.45" cy="-18" rx="27" ry="18"/>
<text text-anchor="middle" x="431.45" y="-13.8" font-family="Times,serif" font-size="14.00">Wb</text>
</g>
<!-- Rb&#45;&gt;Wb -->
<g id="edge4" class="edge"><title>Rb&#45;&gt;Wb</title>
<path fill="none" stroke="#ddb9ad" d="M431.45,-63.6398C431.45,-58.0629 431.45,-52.1319 431.45,-46.4761"/>
<ellipse fill="none" stroke="#ddb9ad" cx="431.45" cy="-67.6966" rx="4" ry="4"/>
<polygon fill="#ddb9ad" stroke="#ddb9ad" points="431.45,-46.1043 435.95,-36.1043 431.45,-41.1043 431.45,-36.1043 431.45,-36.1043 431.45,-36.1043 431.45,-41.1043 426.95,-36.1044 431.45,-46.1043 431.45,-46.1043"/>
</g>
<!-- Round -->
<g id="node5" class="node"><title>Round</title>
<ellipse fill="none" stroke="black" cx="262.45" cy="-90" rx="33.8857" ry="18"/>
<text text-anchor="middle" x="262.45" y="-85.8" font-family="Times,serif" font-size="14.00">Round</text>
</g>
<!-- Round&#45;&gt;Form -->
<g id="edge7" class="edge"><title>Round&#45;&gt;Form</title>
<path fill="none" stroke="#c9d0ab" d="M262.45,-63.6398C262.45,-58.0629 262.45,-52.1319 262.45,-46.4761"/>
<ellipse fill="none" stroke="#c9d0ab" cx="262.45" cy="-67.6966" rx="4" ry="4"/>
<polygon fill="#c9d0ab" stroke="#c9d0ab" points="262.45,-46.1043 266.95,-36.1043 262.45,-41.1043 262.45,-36.1043 262.45,-36.1043 262.45,-36.1043 262.45,-41.1043 257.95,-36.1044 262.45,-46.1043 262.45,-46.1043"/>
</g>
<!-- Wb&#45;&gt;Wb -->
<g id="edge9" class="edge"><title>Wb&#45;&gt;Wb</title>
<path fill="none" stroke="#bafcdb" d="M459.547,-31.5C468.935,-31.5088 476.45,-27.0088 476.45,-18 476.45,-9.62183 469.95,-5.14331 461.489,-4.56444"/>
<ellipse fill="none" stroke="#bafcdb" cx="455.311" cy="-30.9486" rx="4.00001" ry="4.00001"/>
<polygon fill="#bafcdb" stroke="#bafcdb" points="461.296,-4.58345 450.902,-1.08972 456.32,-5.07566 451.345,-5.56787 451.345,-5.56787 451.345,-5.56787 456.32,-5.07566 451.788,-10.046 461.296,-4.58345 461.296,-4.58345"/>
</g>
<!-- Worker -->
<g id="node7" class="node"><title>Worker</title>
<ellipse fill="none" stroke="black" cx="350.45" cy="-90" rx="36.3169" ry="18"/>
<text text-anchor="middle" x="350.45" y="-85.8" font-family="Times,serif" font-size="14.00">Worker</text>
</g>
<!-- Worker&#45;&gt;Form -->
<g id="edge12" class="edge"><title>Worker&#45;&gt;Form</title>
<path fill="none" stroke="#f65ad9" d="M325.332,-69.0204C313.55,-59.6479 299.538,-48.5019 287.734,-39.1127"/>
<ellipse fill="none" stroke="#f65ad9" cx="328.657" cy="-71.6647" rx="4.00002" ry="4.00002"/>
<polygon fill="#f65ad9" stroke="#f65ad9" points="287.419,-38.8621 282.395,-29.1152 283.506,-35.7495 279.593,-32.6369 279.593,-32.6369 279.593,-32.6369 283.506,-35.7495 276.792,-36.1586 287.419,-38.8621 287.419,-38.8621"/>
</g>
<!-- Worker&#45;&gt;Wb -->
<g id="edge11" class="edge"><title>Worker&#45;&gt;Wb</title>
<path fill="none" stroke="#adab9d" d="M374.291,-68.3968C384.892,-59.2355 397.337,-48.4804 407.903,-39.3489"/>
<ellipse fill="none" stroke="#adab9d" cx="371.052" cy="-71.1956" rx="4.00002" ry="4.00002"/>
<polygon fill="#adab9d" stroke="#adab9d" points="407.989,-39.2745 418.498,-36.1406 411.772,-36.0051 415.555,-32.7358 415.555,-32.7358 415.555,-32.7358 411.772,-36.0051 412.613,-29.331 407.989,-39.2745 407.989,-39.2745"/>
</g>
<!-- ActiveRecord::Base -->
<g id="node8" class="node"><title>ActiveRecord::Base</title>
<ellipse fill="none" stroke="black" cx="306.45" cy="-180.5" rx="81.1422" ry="18"/>
<text text-anchor="middle" x="306.45" y="-176.3" font-family="Times,serif" font-size="14.00">ActiveRecord::Base</text>
</g>
<!-- ActiveRecord::Base&#45;&gt;Form -->
<g id="edge1" class="edge"><title>ActiveRecord::Base&#45;&gt;Form</title>
<path fill="none" stroke="black" d="M267.742,-164.483C216.278,-144.43 131.512,-111.057 129.45,-108 120.502,-94.7357 120.471,-85.2433 129.45,-72 152.674,-37.7451 201.948,-25.6289 233.564,-21.3439"/>
</g>
<!-- ActiveRecord::Base&#45;&gt;Pb -->
<g id="edge3" class="edge"><title>ActiveRecord::Base&#45;&gt;Pb</title>
<path fill="none" stroke="black" d="M280.588,-163.268C252.762,-145.802 209.175,-118.445 184.379,-102.881"/>
</g>
<!-- ActiveRecord::Base&#45;&gt;Rb -->
<g id="edge6" class="edge"><title>ActiveRecord::Base&#45;&gt;Rb</title>
<path fill="none" stroke="black" d="M329.668,-163.061C353.956,-145.866 391.553,-119.247 413.611,-103.63"/>
</g>
<!-- ActiveRecord::Base&#45;&gt;Round -->
<g id="edge8" class="edge"><title>ActiveRecord::Base&#45;&gt;Round</title>
<path fill="none" stroke="black" d="M297.966,-162.436C290.125,-146.665 278.543,-123.37 270.758,-107.711"/>
</g>
<!-- ActiveRecord::Base&#45;&gt;Wb -->
<g id="edge10" class="edge"><title>ActiveRecord::Base&#45;&gt;Wb</title>
<path fill="none" stroke="black" d="M375.67,-170.865C414.921,-162.03 460.958,-144.156 485.45,-108 494.423,-94.7531 491.642,-86.7533 485.45,-72 478.282,-54.9213 462.628,-40.5778 450.011,-31.1375"/>
</g>
<!-- ActiveRecord::Base&#45;&gt;Worker -->
<g id="edge13" class="edge"><title>ActiveRecord::Base&#45;&gt;Worker</title>
<path fill="none" stroke="black" d="M314.933,-162.436C322.775,-146.665 334.356,-123.37 342.141,-107.711"/>
</g>
</g>
</svg>
