<?xml version="1.0" encoding="UTF-8" standalone="no"?>
<!DOCTYPE svg PUBLIC "-//W3C//DTD SVG 1.1//EN"
 "http://www.w3.org/Graphics/SVG/1.1/DTD/svg11.dtd">
<!-- Generated by graphviz version 2.38.0 (20140413.2041)
 -->
<!-- Title: models_diagram Pages: 1 -->
<svg width="751pt" height="579pt"
 viewBox="0.00 0.00 750.81 579.00" xmlns="http://www.w3.org/2000/svg" xmlns:xlink="http://www.w3.org/1999/xlink">
<g id="graph0" class="graph" transform="scale(1 1) rotate(0) translate(4 575)">
<title>models_diagram</title>
<polygon fill="none" stroke="none" points="-4,4 -4,-575 746.809,-575 746.809,4 -4,4"/>
<!-- _diagram_info -->
<g id="node1" class="node"><title>_diagram_info</title>
<text text-anchor="start" x="86.4631" y="-556.6" font-family="Times,serif" font-size="13.00">Models diagram</text>
<text text-anchor="start" x="86.4631" y="-543.6" font-family="Times,serif" font-size="13.00">Date: Jan 27 2016 &#45; 20:57</text>
<text text-anchor="start" x="86.4631" y="-530.6" font-family="Times,serif" font-size="13.00">Migration version: 20160119093747</text>
<text text-anchor="start" x="86.4631" y="-517.6" font-family="Times,serif" font-size="13.00">Generated by RailRoady 1.4.2</text>
<text text-anchor="start" x="86.4631" y="-504.6" font-family="Times,serif" font-size="13.00">http://railroady.prestonlee.com</text>
</g>
<!-- Form -->
<g id="node2" class="node"><title>Form</title>
<path fill="none" stroke="black" d="M248.407,-42.5C248.407,-42.5 357.418,-42.5 357.418,-42.5 363.418,-42.5 369.418,-48.5 369.418,-54.5 369.418,-54.5 369.418,-172.5 369.418,-172.5 369.418,-178.5 363.418,-184.5 357.418,-184.5 357.418,-184.5 248.407,-184.5 248.407,-184.5 242.407,-184.5 236.407,-178.5 236.407,-172.5 236.407,-172.5 236.407,-54.5 236.407,-54.5 236.407,-48.5 242.407,-42.5 248.407,-42.5"/>
<text text-anchor="middle" x="302.913" y="-169.3" font-family="Times,serif" font-size="14.00">Form</text>
<polyline fill="none" stroke="black" points="236.407,-162.5 369.418,-162.5 "/>
<text text-anchor="start" x="244.407" y="-147.3" font-family="Times,serif" font-size="14.00">id :INTEGER</text>
<text text-anchor="start" x="244.407" y="-133.3" font-family="Times,serif" font-size="14.00">opt :decimal(16,2)</text>
<text text-anchor="start" x="244.407" y="-119.3" font-family="Times,serif" font-size="14.00">pes :decimal(16,2)</text>
<text text-anchor="start" x="244.407" y="-105.3" font-family="Times,serif" font-size="14.00">real :decimal(16,2)</text>
<text text-anchor="start" x="244.407" y="-91.3" font-family="Times,serif" font-size="14.00">worker_id :integer</text>
<text text-anchor="start" x="244.407" y="-77.3" font-family="Times,serif" font-size="14.00">round_id :integer</text>
<text text-anchor="start" x="244.407" y="-63.3" font-family="Times,serif" font-size="14.00">created_at :datetime</text>
<text text-anchor="start" x="244.407" y="-49.3" font-family="Times,serif" font-size="14.00">updated_at :datetime</text>
</g>
<!-- Pb -->
<g id="node3" class="node"><title>Pb</title>
<path fill="none" stroke="black" d="M59.9143,-270.5C59.9143,-270.5 175.911,-270.5 175.911,-270.5 181.911,-270.5 187.911,-276.5 187.911,-282.5 187.911,-282.5 187.911,-442.5 187.911,-442.5 187.911,-448.5 181.911,-454.5 175.911,-454.5 175.911,-454.5 59.9143,-454.5 59.9143,-454.5 53.9143,-454.5 47.9143,-448.5 47.9143,-442.5 47.9143,-442.5 47.9143,-282.5 47.9143,-282.5 47.9143,-276.5 53.9143,-270.5 59.9143,-270.5"/>
<text text-anchor="middle" x="117.913" y="-439.3" font-family="Times,serif" font-size="14.00">Pb</text>
<polyline fill="none" stroke="black" points="47.9143,-432.5 187.911,-432.5 "/>
<text text-anchor="start" x="55.9143" y="-417.3" font-family="Times,serif" font-size="14.00">id :INTEGER</text>
<text text-anchor="start" x="55.9143" y="-403.3" font-family="Times,serif" font-size="14.00">name :varchar</text>
<text text-anchor="start" x="55.9143" y="-389.3" font-family="Times,serif" font-size="14.00">parent_id :integer</text>
<text text-anchor="start" x="55.9143" y="-375.3" font-family="Times,serif" font-size="14.00">beschreibung :varchar</text>
<text text-anchor="start" x="55.9143" y="-361.3" font-family="Times,serif" font-size="14.00">created_at :datetime</text>
<text text-anchor="start" x="55.9143" y="-347.3" font-family="Times,serif" font-size="14.00">updated_at :datetime</text>
<text text-anchor="start" x="55.9143" y="-333.3" font-family="Times,serif" font-size="14.00">ebene :integer</text>
<text text-anchor="start" x="55.9143" y="-319.3" font-family="Times,serif" font-size="14.00">l1 :integer</text>
<text text-anchor="start" x="55.9143" y="-305.3" font-family="Times,serif" font-size="14.00">l2 :integer</text>
<text text-anchor="start" x="55.9143" y="-291.3" font-family="Times,serif" font-size="14.00">l3 :integer</text>
<text text-anchor="start" x="55.9143" y="-277.3" font-family="Times,serif" font-size="14.00">l4 :integer</text>
</g>
<!-- Pb&#45;&gt;Pb -->
<g id="edge2" class="edge"><title>Pb&#45;&gt;Pb</title>
<path fill="none" stroke="#b85cdc" d="M195.289,-387.545C201.833,-382.186 205.911,-373.838 205.911,-362.5 205.911,-351.871 202.327,-343.869 196.486,-338.495"/>
<ellipse fill="none" stroke="#b85cdc" cx="191.417" cy="-389.857" rx="4.00002" ry="4.00002"/>
<polygon fill="#b85cdc" stroke="#b85cdc" points="196.423,-338.455 190.395,-329.294 192.203,-335.773 187.982,-333.092 187.982,-333.092 187.982,-333.092 192.203,-335.773 185.569,-336.891 196.423,-338.455 196.423,-338.455"/>
</g>
<!-- Rb -->
<g id="node4" class="node"><title>Rb</title>
<path fill="none" stroke="black" d="M562.849,-263.5C562.849,-263.5 674.977,-263.5 674.977,-263.5 680.977,-263.5 686.977,-269.5 686.977,-275.5 686.977,-275.5 686.977,-449.5 686.977,-449.5 686.977,-455.5 680.977,-461.5 674.977,-461.5 674.977,-461.5 562.849,-461.5 562.849,-461.5 556.849,-461.5 550.849,-455.5 550.849,-449.5 550.849,-449.5 550.849,-275.5 550.849,-275.5 550.849,-269.5 556.849,-263.5 562.849,-263.5"/>
<text text-anchor="middle" x="618.913" y="-446.3" font-family="Times,serif" font-size="14.00">Rb</text>
<polyline fill="none" stroke="black" points="550.849,-439.5 686.977,-439.5 "/>
<text text-anchor="start" x="558.849" y="-424.3" font-family="Times,serif" font-size="14.00">id :INTEGER</text>
<text text-anchor="start" x="558.849" y="-410.3" font-family="Times,serif" font-size="14.00">name :varchar</text>
<text text-anchor="start" x="558.849" y="-396.3" font-family="Times,serif" font-size="14.00">parent_id :integer</text>
<text text-anchor="start" x="558.849" y="-382.3" font-family="Times,serif" font-size="14.00">qualifikation :varchar</text>
<text text-anchor="start" x="558.849" y="-368.3" font-family="Times,serif" font-size="14.00">erfahrung :varchar</text>
<text text-anchor="start" x="558.849" y="-354.3" font-family="Times,serif" font-size="14.00">created_at :datetime</text>
<text text-anchor="start" x="558.849" y="-340.3" font-family="Times,serif" font-size="14.00">updated_at :datetime</text>
<text text-anchor="start" x="558.849" y="-326.3" font-family="Times,serif" font-size="14.00">ebene :integer</text>
<text text-anchor="start" x="558.849" y="-312.3" font-family="Times,serif" font-size="14.00">l1 :integer</text>
<text text-anchor="start" x="558.849" y="-298.3" font-family="Times,serif" font-size="14.00">l2 :integer</text>
<text text-anchor="start" x="558.849" y="-284.3" font-family="Times,serif" font-size="14.00">l3 :integer</text>
<text text-anchor="start" x="558.849" y="-270.3" font-family="Times,serif" font-size="14.00">vza :integer</text>
</g>
<!-- Rb&#45;&gt;Rb -->
<g id="edge5" class="edge"><title>Rb&#45;&gt;Rb</title>
<path fill="none" stroke="#505021" d="M694.373,-387.723C700.899,-382.371 704.977,-373.964 704.977,-362.5 704.977,-351.753 701.393,-343.691 695.568,-338.316"/>
<ellipse fill="none" stroke="#505021" cx="690.53" cy="-390.01" rx="4.00002" ry="4.00002"/>
<polygon fill="#505021" stroke="#505021" points="695.539,-338.298 689.502,-329.144 691.316,-335.621 687.093,-332.945 687.093,-332.945 687.093,-332.945 691.316,-335.621 684.684,-336.746 695.539,-338.298 695.539,-338.298"/>
</g>
<!-- Wb -->
<g id="node6" class="node"><title>Wb</title>
<path fill="none" stroke="black" d="M560.914,-0.5C560.914,-0.5 676.911,-0.5 676.911,-0.5 682.911,-0.5 688.911,-6.5 688.911,-12.5 688.911,-12.5 688.911,-214.5 688.911,-214.5 688.911,-220.5 682.911,-226.5 676.911,-226.5 676.911,-226.5 560.914,-226.5 560.914,-226.5 554.914,-226.5 548.914,-220.5 548.914,-214.5 548.914,-214.5 548.914,-12.5 548.914,-12.5 548.914,-6.5 554.914,-0.5 560.914,-0.5"/>
<text text-anchor="middle" x="618.913" y="-211.3" font-family="Times,serif" font-size="14.00">Wb</text>
<polyline fill="none" stroke="black" points="548.914,-204.5 688.911,-204.5 "/>
<text text-anchor="start" x="556.914" y="-189.3" font-family="Times,serif" font-size="14.00">id :INTEGER</text>
<text text-anchor="start" x="556.914" y="-175.3" font-family="Times,serif" font-size="14.00">name :varchar</text>
<text text-anchor="start" x="556.914" y="-161.3" font-family="Times,serif" font-size="14.00">parent_id :integer</text>
<text text-anchor="start" x="556.914" y="-147.3" font-family="Times,serif" font-size="14.00">beschreibung :varchar</text>
<text text-anchor="start" x="556.914" y="-133.3" font-family="Times,serif" font-size="14.00">start :date</text>
<text text-anchor="start" x="556.914" y="-119.3" font-family="Times,serif" font-size="14.00">end :date</text>
<text text-anchor="start" x="556.914" y="-105.3" font-family="Times,serif" font-size="14.00">rb_id :integer</text>
<text text-anchor="start" x="556.914" y="-91.3" font-family="Times,serif" font-size="14.00">worker_id :integer</text>
<text text-anchor="start" x="556.914" y="-77.3" font-family="Times,serif" font-size="14.00">created_at :datetime</text>
<text text-anchor="start" x="556.914" y="-63.3" font-family="Times,serif" font-size="14.00">updated_at :datetime</text>
<text text-anchor="start" x="556.914" y="-49.3" font-family="Times,serif" font-size="14.00">ebene :integer</text>
<text text-anchor="start" x="556.914" y="-35.3" font-family="Times,serif" font-size="14.00">l1 :integer</text>
<text text-anchor="start" x="556.914" y="-21.3" font-family="Times,serif" font-size="14.00">l2 :integer</text>
<text text-anchor="start" x="556.914" y="-7.3" font-family="Times,serif" font-size="14.00">l3 :integer</text>
</g>
<!-- Rb&#45;&gt;Wb -->
<g id="edge4" class="edge"><title>Rb&#45;&gt;Wb</title>
<path fill="none" stroke="#68ede6" d="M618.913,-254.986C618.913,-248.992 618.913,-242.943 618.913,-236.897"/>
<ellipse fill="none" stroke="#68ede6" cx="618.913" cy="-259.169" rx="4" ry="4"/>
<polygon fill="#68ede6" stroke="#68ede6" points="618.913,-236.737 623.413,-226.737 618.913,-231.737 618.913,-226.737 618.913,-226.737 618.913,-226.737 618.913,-231.737 614.413,-226.737 618.913,-236.737 618.913,-236.737"/>
</g>
<!-- Round -->
<g id="node5" class="node"><title>Round</title>
<path fill="none" stroke="black" d="M235.966,-312.5C235.966,-312.5 369.86,-312.5 369.86,-312.5 375.86,-312.5 381.86,-318.5 381.86,-324.5 381.86,-324.5 381.86,-400.5 381.86,-400.5 381.86,-406.5 375.86,-412.5 369.86,-412.5 369.86,-412.5 235.966,-412.5 235.966,-412.5 229.966,-412.5 223.966,-406.5 223.966,-400.5 223.966,-400.5 223.966,-324.5 223.966,-324.5 223.966,-318.5 229.966,-312.5 235.966,-312.5"/>
<text text-anchor="middle" x="302.913" y="-397.3" font-family="Times,serif" font-size="14.00">Round</text>
<polyline fill="none" stroke="black" points="223.966,-390.5 381.86,-390.5 "/>
<text text-anchor="start" x="231.966" y="-375.3" font-family="Times,serif" font-size="14.00">id :INTEGER</text>
<text text-anchor="start" x="231.966" y="-361.3" font-family="Times,serif" font-size="14.00">count :integer</text>
<text text-anchor="start" x="231.966" y="-347.3" font-family="Times,serif" font-size="14.00">member_number :integer</text>
<text text-anchor="start" x="231.966" y="-333.3" font-family="Times,serif" font-size="14.00">created_at :datetime</text>
<text text-anchor="start" x="231.966" y="-319.3" font-family="Times,serif" font-size="14.00">updated_at :datetime</text>
</g>
<!-- Round&#45;&gt;Form -->
<g id="edge7" class="edge"><title>Round&#45;&gt;Form</title>
<path fill="none" stroke="#a5a56f" d="M302.913,-304.041C302.913,-271.592 302.913,-230.526 302.913,-194.921"/>
<ellipse fill="none" stroke="#a5a56f" cx="302.913" cy="-308.405" rx="4" ry="4"/>
<polygon fill="#a5a56f" stroke="#a5a56f" points="302.913,-194.55 307.413,-184.55 302.913,-189.55 302.913,-184.55 302.913,-184.55 302.913,-184.55 302.913,-189.55 298.413,-184.55 302.913,-194.55 302.913,-194.55"/>
</g>
<!-- Wb&#45;&gt;Wb -->
<g id="edge9" class="edge"><title>Wb&#45;&gt;Wb</title>
<path fill="none" stroke="#aba119" d="M695.458,-150.555C702.486,-142.881 706.911,-130.529 706.911,-113.5 706.911,-97.4929 703.001,-85.6185 696.694,-77.8768"/>
<ellipse fill="none" stroke="#aba119" cx="692.067" cy="-153.355" rx="4.00002" ry="4.00002"/>
<polygon fill="#aba119" stroke="#aba119" points="696.493,-77.7002 691.953,-67.7183 692.738,-74.3992 688.982,-71.0983 688.982,-71.0983 688.982,-71.0983 692.738,-74.3992 686.012,-74.4782 696.493,-77.7002 696.493,-77.7002"/>
</g>
<!-- Worker -->
<g id="node7" class="node"><title>Worker</title>
<path fill="none" stroke="black" d="M411.407,-319.5C411.407,-319.5 520.418,-319.5 520.418,-319.5 526.418,-319.5 532.418,-325.5 532.418,-331.5 532.418,-331.5 532.418,-393.5 532.418,-393.5 532.418,-399.5 526.418,-405.5 520.418,-405.5 520.418,-405.5 411.407,-405.5 411.407,-405.5 405.407,-405.5 399.407,-399.5 399.407,-393.5 399.407,-393.5 399.407,-331.5 399.407,-331.5 399.407,-325.5 405.407,-319.5 411.407,-319.5"/>
<text text-anchor="middle" x="465.913" y="-390.3" font-family="Times,serif" font-size="14.00">Worker</text>
<polyline fill="none" stroke="black" points="399.407,-383.5 532.418,-383.5 "/>
<text text-anchor="start" x="407.407" y="-368.3" font-family="Times,serif" font-size="14.00">id :INTEGER</text>
<text text-anchor="start" x="407.407" y="-354.3" font-family="Times,serif" font-size="14.00">name :varchar</text>
<text text-anchor="start" x="407.407" y="-340.3" font-family="Times,serif" font-size="14.00">created_at :datetime</text>
<text text-anchor="start" x="407.407" y="-326.3" font-family="Times,serif" font-size="14.00">updated_at :datetime</text>
</g>
<!-- Worker&#45;&gt;Form -->
<g id="edge12" class="edge"><title>Worker&#45;&gt;Form</title>
<path fill="none" stroke="#8fd74f" d="M433.378,-312.198C410.947,-278.208 380.653,-232.303 354.903,-193.282"/>
<ellipse fill="none" stroke="#8fd74f" cx="435.874" cy="-315.981" rx="4.00002" ry="4.00002"/>
<polygon fill="#8fd74f" stroke="#8fd74f" points="354.652,-192.902 352.899,-182.077 351.898,-188.728 349.144,-184.555 349.144,-184.555 349.144,-184.555 351.898,-188.728 345.388,-187.034 354.652,-192.902 354.652,-192.902"/>
</g>
<!-- Worker&#45;&gt;Wb -->
<g id="edge11" class="edge"><title>Worker&#45;&gt;Wb</title>
<path fill="none" stroke="#4b434c" d="M496.441,-312.215C510.209,-289.99 527.134,-262.666 543.959,-235.504"/>
<ellipse fill="none" stroke="#4b434c" cx="494.147" cy="-315.919" rx="4.00002" ry="4.00002"/>
<polygon fill="#4b434c" stroke="#4b434c" points="544.148,-235.199 553.24,-229.067 546.781,-230.948 549.414,-226.697 549.414,-226.697 549.414,-226.697 546.781,-230.948 545.588,-224.328 544.148,-235.199 544.148,-235.199"/>
</g>
<!-- ActiveRecord::Base -->
<g id="node8" class="node"><title>ActiveRecord::Base</title>
<ellipse fill="none" stroke="black" cx="384.913" cy="-534.5" rx="81.1422" ry="18"/>
<text text-anchor="middle" x="384.913" y="-530.3" font-family="Times,serif" font-size="14.00">ActiveRecord::Base</text>
</g>
<!-- ActiveRecord::Base&#45;&gt;Form -->
<g id="edge1" class="edge"><title>ActiveRecord::Base&#45;&gt;Form</title>
<path fill="none" stroke="black" d="M350.967,-518.093C334.117,-511.007 313.271,-503.069 293.913,-498 238.551,-483.503 76.4447,-505.203 38.9128,-462 -19.0911,-395.232 -5.73798,-339.346 38.9128,-263 81.1245,-190.825 172.741,-151.02 236.109,-131.217"/>
</g>
<!-- ActiveRecord::Base&#45;&gt;Pb -->
<g id="edge3" class="edge"><title>ActiveRecord::Base&#45;&gt;Pb</title>
<path fill="none" stroke="black" d="M346.908,-518.437C300.408,-499.863 226.409,-469.791 214.913,-462 205.674,-455.739 196.591,-448.503 187.913,-440.852"/>
</g>
<!-- ActiveRecord::Base&#45;&gt;Rb -->
<g id="edge6" class="edge"><title>ActiveRecord::Base&#45;&gt;Rb</title>
<path fill="none" stroke="black" d="M430.013,-519.499C463.225,-507.71 508.271,-488.506 541.913,-462 544.811,-459.716 547.664,-457.302 550.465,-454.783"/>
</g>
<!-- ActiveRecord::Base&#45;&gt;Round -->
<g id="edge8" class="edge"><title>ActiveRecord::Base&#45;&gt;Round</title>
<path fill="none" stroke="black" d="M376.751,-516.578C365.165,-492.559 343.483,-447.609 326.6,-412.607"/>
</g>
<!-- ActiveRecord::Base&#45;&gt;Wb -->
<g id="edge10" class="edge"><title>ActiveRecord::Base&#45;&gt;Wb</title>
<path fill="none" stroke="black" d="M460.798,-527.811C547.882,-519.52 682.734,-500.683 713.913,-462 770.824,-391.392 732.788,-289.286 689.104,-214.016"/>
</g>
<!-- ActiveRecord::Base&#45;&gt;Worker -->
<g id="edge13" class="edge"><title>ActiveRecord::Base&#45;&gt;Worker</title>
<path fill="none" stroke="black" d="M392.976,-516.578C405.18,-490.963 428.727,-441.544 445.772,-405.772"/>
</g>
</g>
</svg>
